<svg width="226" height="48" viewBox="0 0 226 48" fill="none" xmlns="http://www.w3.org/2000/svg">
<path d="M16.8 20.72V43.32C16.8 44.44 16.52 45.2933 15.96 45.88C15.4267 46.4667 14.48 46.76 13.12 46.76H3.44V41.32H6.16V44H13.52V33.56L6.68 37.88C6.09333 38.2267 5.44 38.4 4.72 38.4C4.02667 38.4 3.4 38.1333 2.84 37.6C2.28 37.04 2 36.36 2 35.56V21.52C2 20.2133 2.17333 19.36 2.52 18.96C3.10667 18.32 4.06667 18 5.4 18H19.32V20.72H16.8ZM13.52 20.72H5.12V35.6L13.52 30.32V20.72Z" fill="#FCA311"/>
<path d="M65.2663 24.8L61.7063 10.72L58.1463 24.8H65.2663ZM73.5463 35.28V38H65.7463V35.28H67.9063L65.9063 27.32H57.5063L55.5063 35.28H57.7063V38H49.9063V35.28H52.4263L59.3863 8H64.1063L70.9462 35.28H73.5463ZM89.9713 17.6C92.0513 17.6 93.0913 18.6267 93.0913 20.68V35.28H95.6512V38H87.9313V35.28H89.8513V20.4L81.8913 25.4V35.28H83.8513V38H76.1313V35.28H78.6513V20.68H76.1313V18H81.8913V22.16L88.5313 18C88.9579 17.7333 89.4379 17.6 89.9713 17.6ZM115.866 18V43.32C115.866 44.44 115.586 45.2933 115.026 45.88C114.492 46.4667 113.546 46.76 112.186 46.76H102.946V41.32H105.666V44H112.586V33.48L105.546 37.84C104.932 38.2133 104.319 38.4 103.706 38.4C103.092 38.4 102.559 38.2 102.106 37.8C101.652 37.3733 101.426 36.7067 101.426 35.8V20.72H98.8656V18H104.666V35.24L112.626 30.24V20.72H110.666V18H115.866ZM118.652 18H125.012V20.72H123.252L126.492 35.24L130.212 18H134.612L138.452 35.32L141.732 20.72H139.932V18H146.332V20.72H144.412L140.612 38H136.332L132.532 20.68L128.652 38H124.172C124.172 38 124.078 37.5733 123.892 36.72C123.705 35.84 123.465 34.76 123.172 33.48C122.905 32.2 122.612 30.8133 122.292 29.32C121.972 27.8267 121.665 26.44 121.372 25.16C121.105 23.88 120.865 22.8267 120.652 22L120.372 20.72H118.652V18ZM168.268 35.28V38H160.548V35.28H162.468V20.48L154.508 25.48V35.28H156.468V38H148.748V35.28H151.268V10.72H148.748V8H154.508V22.24L161.148 18.08C161.655 17.76 162.255 17.6 162.948 17.6C163.642 17.6 164.268 17.88 164.828 18.44C165.415 18.9733 165.708 19.7467 165.708 20.76V35.28H168.268ZM171.883 21.92C171.883 19.28 173.256 17.96 176.003 17.96H182.763C184.069 17.96 185.016 18.2133 185.603 18.72C186.189 19.2267 186.483 20.16 186.483 21.52V25.24L175.083 32.44V35.28H183.323V32.96H186.483V35.08C186.483 35.88 186.229 36.5733 185.723 37.16C185.243 37.72 184.429 38 183.283 38H175.083C173.936 38 173.109 37.72 172.603 37.16C172.123 36.5733 171.883 35.88 171.883 35.08V21.92ZM175.083 29.2L183.283 24.04V20.72H175.083V29.2ZM202.197 18C204.277 18 205.317 19.0267 205.317 21.08V24.64H202.077V20.76L195.837 24.72V35.28H197.797V38H190.077V35.28H192.597V20.68H190.077V17.96H195.837V21.48L200.757 18.4C201.183 18.1333 201.663 18 202.197 18ZM208.914 21.92C208.914 19.28 210.287 17.96 213.034 17.96H219.794C221.101 17.96 222.047 18.2133 222.634 18.72C223.221 19.2267 223.514 20.16 223.514 21.52V25.24L212.114 32.44V35.28H220.354V32.96H223.514V35.08C223.514 35.88 223.261 36.5733 222.754 37.16C222.274 37.72 221.461 38 220.314 38H212.114C210.967 38 210.141 37.72 209.634 37.16C209.154 36.5733 208.914 35.88 208.914 35.08V21.92ZM212.114 29.2L220.314 24.04V20.72H212.114V29.2Z" fill="#14213D"/>
<g clip-path="url(#clip0_707_5)">
<path d="M49.0586 30.7695C49.0586 31.6106 49.0586 32.4517 49.035 33.3296C48.9453 33.9164 48.931 34.4789 48.8014 35.0135C48.5958 35.8612 48.336 36.698 48.0571 37.5253C47.7032 38.5751 47.1522 39.533 46.5449 40.4532C45.863 41.4866 45.0348 42.403 44.1163 43.2287C43.5719 43.7181 42.9951 44.1813 42.3868 44.5874C41.4392 45.2201 40.4281 45.7455 39.3519 46.1357C38.293 46.5196 37.2137 46.8174 36.0907 46.9431C35.8418 46.9709 35.5953 47.0195 35.3477 47.0586C34.5066 47.0586 33.6655 47.0586 32.7876 47.035C32.1084 46.9287 31.4539 46.8984 30.8261 46.7528C29.3853 46.4188 28.0052 45.9107 26.7074 45.1844C25.2121 44.3476 23.9202 43.2614 22.7746 42.0018C22.3162 41.4978 21.905 40.9434 21.5266 40.3757C20.9001 39.4356 20.3487 38.4462 20.0012 37.3662C19.7312 36.5272 19.52 35.6689 19.296 34.8156C19.1995 34.4481 19.1367 34.0716 19.0586 33.6992C19.0586 32.6628 19.0586 31.6265 19.0817 30.554C19.1703 30.0471 19.1932 29.5652 19.3107 29.1076C19.5298 28.254 19.7752 27.4045 20.0625 26.5716C20.4198 25.5358 20.9615 24.5836 21.5639 23.673C22.2621 22.6175 23.1118 21.6826 24.0509 20.8386C24.5797 20.3633 25.1481 19.9232 25.739 19.5278C26.6777 18.8997 27.6786 18.3808 28.7447 17.9917C29.811 17.6026 30.897 17.3029 32.0274 17.1742C32.276 17.1459 32.5222 17.0977 32.7695 17.0586C33.6106 17.0586 34.4517 17.0586 35.3296 17.0822C35.9164 17.1719 36.4789 17.1862 37.0135 17.3158C37.8612 17.5214 38.698 17.7811 39.5253 18.0601C40.5751 18.414 41.533 18.965 42.4532 19.5723C43.4866 20.2542 44.403 21.0824 45.2287 22.0009C45.7181 22.5453 46.1813 23.1221 46.5874 23.7303C47.2201 24.678 47.7455 25.6891 48.1357 26.7653C48.5196 27.8242 48.8174 28.9035 48.9431 30.0265C48.9709 30.2754 49.0195 30.5219 49.0586 30.7695ZM42.4376 24.0607C42.1267 23.7694 41.842 23.4417 41.4994 23.1945C40.7725 22.6699 40.0491 22.1241 39.2624 21.7022C38.1292 21.0944 36.9029 20.7278 35.6147 20.5657C34.7385 20.4554 33.8708 20.4289 32.9915 20.5095C32.0335 20.5972 31.0962 20.7716 30.2058 21.1299C29.5015 21.4132 28.7925 21.7076 28.1386 22.0881C27.0056 22.7474 26.0304 23.608 25.1773 24.6121C24.6209 25.2668 24.1211 25.9629 23.7611 26.7316C23.3646 27.5781 23.0647 28.472 22.761 29.3585C22.6417 29.7067 22.6262 30.0905 22.5592 30.4829C22.9736 30.4576 23.3393 30.4465 23.7026 30.4108C24.3971 30.3424 25.0896 30.2549 25.784 30.1854C26.2714 30.1366 26.7611 30.1113 27.2485 30.0636C27.9816 29.9919 28.7125 29.8944 29.4468 29.842C29.6492 29.8275 29.7548 29.7608 29.8403 29.5998C30.3027 28.7281 31.0218 28.1126 31.8803 27.6738C32.6256 27.2928 33.4322 27.1469 34.2822 27.1853C34.9598 27.216 35.5952 27.3635 36.194 27.6614C37.0799 28.1022 37.8051 28.7227 38.2835 29.6082C38.3337 29.7012 38.4436 29.8115 38.5373 29.8233C39.1357 29.8989 39.737 29.9529 40.3381 30.0069C41.246 30.0884 42.1547 30.1609 43.0625 30.2443C43.318 30.2678 43.5702 30.3277 43.8258 30.3509C44.3888 30.4021 44.953 30.4407 45.5658 30.4882C45.1763 28.0117 44.1796 25.8793 42.4376 24.0607ZM23.1916 36.1031C23.496 37.0228 23.9699 37.8583 24.5155 38.6487C25.1852 39.619 25.9964 40.4609 26.9262 41.1934C27.9366 41.9894 29.0385 42.6109 30.2578 43.012C30.8995 43.2232 31.5589 43.3802 32.2252 43.5658C32.2338 43.4883 32.2442 43.4499 32.2412 43.4127C32.1839 42.7151 32.1212 42.018 32.0677 41.3201C32.0229 40.7346 31.9861 40.1484 31.9499 39.5622C31.8893 38.5809 31.8284 37.5997 31.7774 36.6179C31.7698 36.4704 31.7411 36.3856 31.6008 36.3007C30.8737 35.8609 30.2473 35.3062 29.8466 34.5449C29.679 34.2265 29.4972 34.0999 29.1094 34.0908C28.2486 34.0706 27.3907 33.9453 26.5305 33.8775C25.8772 33.8259 25.2219 33.7995 24.5679 33.7564C24.3002 33.7388 24.0335 33.7062 23.7663 33.6814C23.3772 33.6453 22.988 33.6101 22.5503 33.5701C22.673 34.4497 22.878 35.2668 23.1916 36.1031ZM35.9922 41.9868C35.956 42.5002 35.9199 43.0136 35.8839 43.5235C38.4133 43.09 40.568 41.9772 42.3541 40.1446C44.1413 38.3109 45.195 36.1325 45.5641 33.5853C44.9152 33.6261 44.321 33.6625 43.7269 33.7015C43.4777 33.7179 43.2287 33.738 42.9799 33.7593C42.0815 33.8363 41.1835 33.9176 40.2848 33.991C39.7289 34.0364 39.1717 34.0671 38.616 34.1147C38.5583 34.1197 38.4836 34.1836 38.4555 34.2396C38.0069 35.1327 37.3332 35.8108 36.4877 36.3297C36.4302 36.3649 36.3586 36.426 36.35 36.4835C36.3162 36.7107 36.3024 36.9411 36.2857 37.1707C36.2451 37.7271 36.2027 38.2835 36.1692 38.8404C36.1071 39.8702 36.0509 40.9004 35.9922 41.9868ZM32.9428 31.0958C32.5435 31.6164 32.4453 32.1776 32.7736 32.7617C33.0798 33.3064 33.56 33.551 34.1947 33.5278C35.0193 33.4977 35.7361 32.5065 35.4962 31.7068C35.1574 30.578 33.8331 30.1842 32.9428 31.0958Z" fill="#FCA311"/>
</g>
<defs>
<clipPath id="clip0_707_5">
<rect width="30" height="30" fill="white" transform="translate(19 17)"/>
</clipPath>
</defs>
</svg>
