<svg width="130" height="130" viewBox="0 0 130 130" fill="none" xmlns="http://www.w3.org/2000/svg">
<g filter="url(#filter0_d_509_8)">
<rect x="6.5" y="4.5" width="113" height="113" stroke="black" stroke-width="3" shape-rendering="crispEdges"/>
</g>
<g clip-path="url(#clip0_509_8)">
<g filter="url(#filter1_d_509_8)">
<path d="M38.5 88.5C32.5 88.5 26.25 86.25 21.75 81.5C12.5 72.25 12.5 57 21.75 47.75C30 39.5 43 38.5 52.5 45.25C53.5 46 53.75 47.75 53 48.75C52.25 49.75 50.75 50 49.5 49.25C42 43.75 31.75 44.5 25.25 51.25C18 58.5 18 70.5 25.25 77.75C32.5 85 44.5 85 51.75 77.75C52 77.5 52.25 77.25 52.5 76.75C53.5 75.75 55 75.5 56 76.5C57 77.5 57.25 79 56.25 80C56 80.5 55.5 80.75 55.25 81C50.5 86.25 44.5 88.5 38.5 88.5Z" fill="black"/>
</g>
<g filter="url(#filter2_d_509_8)">
<path d="M38.5 75.5C35.75 75.5 33 74.5 31 72.25C29 70.25 27.75 67.5 27.75 64.75C27.75 62 28.75 59.25 31 57.25C33 55.25 35.75 54 38.5 54C41.25 54 44 55 46 57.25C47 58.25 47 59.75 46 60.75C45 61.75 43.5 61.75 42.5 60.75C40.25 58.5 36.5 58.5 34.5 60.75C33.5 61.75 32.75 63.25 32.75 64.75C32.75 66.25 33.25 67.75 34.5 68.75C36.75 71 40.5 71 42.5 68.75C43.5 67.75 45 67.75 46 68.75C47 69.75 47 71.25 46 72.25C44 74.5 41.25 75.5 38.5 75.5ZM105 78.5C101.5 78.5 99.75 76.5 98.5 75.25C97.25 74 96.75 73.5 95.5 73.5C94.25 73.5 93.75 74 92.5 75.25C91.25 76.75 89.5 78.5 86 78.5C82.5 78.5 80.75 76.5 79.5 75.25C78.25 74 77.75 73.5 76.5 73.5C75.25 73.5 74.75 74 73.5 75.25C72.25 76.75 70.5 78.5 67 78.5C63.5 78.5 61.75 76.5 60.5 75.25C59.5 74.25 59 73.75 58.25 73.5C57 73.25 56 71.75 56.25 70.5C56.5 69.25 58 68.25 59.25 68.5C61.5 69 63 70.5 64 71.5C65.25 72.75 65.75 73.25 67 73.25C68.25 73.25 68.75 72.75 70 71.5C71.25 70 73 68.25 76.5 68.25C80 68.25 81.75 70.25 83 71.5C84.25 72.75 84.75 73.25 86 73.25C87.25 73.25 87.75 72.75 89 71.5C90.25 70 92 68.25 95.5 68.25C99 68.25 100.75 70.25 102 71.5C102.75 72.25 103.25 72.75 103.75 73L109.5 64.5L103.75 55.75H56.5C55 55.75 54 54.75 54 53.25C54 51.75 55 50.75 56.5 50.75H105C105.75 50.75 106.5 51.25 107 51.75L114.5 63C115 63.75 115 65 114.5 65.75L107 77C106.5 78.25 105.75 78.5 105 78.5Z" fill="black"/>
</g>
</g>
<defs>
<filter id="filter0_d_509_8" x="0" y="0" width="130" height="130" filterUnits="userSpaceOnUse" color-interpolation-filters="sRGB">
<feFlood flood-opacity="0" result="BackgroundImageFix"/>
<feColorMatrix in="SourceAlpha" type="matrix" values="0 0 0 0 0 0 0 0 0 0 0 0 0 0 0 0 0 0 127 0" result="hardAlpha"/>
<feMorphology radius="3" operator="dilate" in="SourceAlpha" result="effect1_dropShadow_509_8"/>
<feOffset dx="2" dy="4"/>
<feGaussianBlur stdDeviation="2"/>
<feComposite in2="hardAlpha" operator="out"/>
<feColorMatrix type="matrix" values="0 0 0 0 0 0 0 0 0 0 0 0 0 0 0 0 0 0 0.25 0"/>
<feBlend mode="normal" in2="BackgroundImageFix" result="effect1_dropShadow_509_8"/>
<feBlend mode="normal" in="SourceGraphic" in2="effect1_dropShadow_509_8" result="shape"/>
</filter>
<filter id="filter1_d_509_8" x="10.8125" y="40.7985" width="50.0742" height="60.7015" filterUnits="userSpaceOnUse" color-interpolation-filters="sRGB">
<feFlood flood-opacity="0" result="BackgroundImageFix"/>
<feColorMatrix in="SourceAlpha" type="matrix" values="0 0 0 0 0 0 0 0 0 0 0 0 0 0 0 0 0 0 127 0" result="hardAlpha"/>
<feOffset dy="9"/>
<feGaussianBlur stdDeviation="2"/>
<feComposite in2="hardAlpha" operator="out"/>
<feColorMatrix type="matrix" values="0 0 0 0 0 0 0 0 0 0 0 0 0 0 0 0 0 0 0.25 0"/>
<feBlend mode="normal" in2="BackgroundImageFix" result="effect1_dropShadow_509_8"/>
<feBlend mode="normal" in="SourceGraphic" in2="effect1_dropShadow_509_8" result="shape"/>
</filter>
<filter id="filter2_d_509_8" x="23.75" y="50.75" width="95.125" height="40.75" filterUnits="userSpaceOnUse" color-interpolation-filters="sRGB">
<feFlood flood-opacity="0" result="BackgroundImageFix"/>
<feColorMatrix in="SourceAlpha" type="matrix" values="0 0 0 0 0 0 0 0 0 0 0 0 0 0 0 0 0 0 127 0" result="hardAlpha"/>
<feOffset dy="9"/>
<feGaussianBlur stdDeviation="2"/>
<feComposite in2="hardAlpha" operator="out"/>
<feColorMatrix type="matrix" values="0 0 0 0 0 0 0 0 0 0 0 0 0 0 0 0 0 0 0.25 0"/>
<feBlend mode="normal" in2="BackgroundImageFix" result="effect1_dropShadow_509_8"/>
<feBlend mode="normal" in="SourceGraphic" in2="effect1_dropShadow_509_8" result="shape"/>
</filter>
<clipPath id="clip0_509_8">
<rect width="100" height="100" fill="white" transform="translate(15 14)"/>
</clipPath>
</defs>
</svg>
