<svg width="1334" height="334" viewBox="0 0 1334 334" fill="none" xmlns="http://www.w3.org/2000/svg">
<rect width="604" height="333" rx="25" fill="#14213D"/>
<g clip-path="url(#clip0_456_9)">
<path d="M1334 25.7626V306.915C1334 311.219 1332.91 315.454 1330.83 319.234C1329.44 321.769 1327.63 324.053 1325.47 325.99C1325.31 326.137 1325.15 326.274 1324.99 326.398C1323.04 328.099 1320.83 329.489 1318.45 330.52C1317.39 330.986 1316.3 331.376 1315.19 331.689C1314.46 331.894 1313.7 332.076 1312.95 332.212C1311.93 332.413 1310.89 332.546 1309.85 332.609C1309.27 332.655 1308.67 332.677 1308.07 332.677H1046.51L1033.43 333.381L1021.06 332.677H567.931C567.406 332.677 566.869 332.666 566.354 332.62C564.938 332.541 563.531 332.343 562.149 332.03C556.423 330.73 551.312 327.537 547.652 322.974C543.991 318.412 541.999 312.749 542 306.915V25.7626C542.008 18.9325 544.743 12.3844 549.604 7.55478C554.466 2.72513 561.057 0.00822705 567.931 0H1308.07C1314.94 0.00822705 1321.53 2.72513 1326.4 7.55478C1331.26 12.3844 1333.99 18.9325 1334 25.7626Z" fill="#F2F2F2"/>
<path d="M726.96 0C686.403 93.9831 694.18 208.118 726.96 332.677H954.492C982.945 207.976 997.349 90.0937 954.492 0H726.96Z" fill="#E4E4E4"/>
<path d="M635.189 0C561.081 90.6063 581.756 207.158 635.189 332.677H726.96C693.864 214.097 688.454 101.948 726.96 0H635.189Z" fill="#CACACA"/>
<path d="M912.428 7.71198H878.012V41.9038H912.428V7.71198Z" fill="white"/>
<path d="M856.98 7.71198H822.564V41.9038H856.98V7.71198Z" fill="white"/>
<path d="M801.532 7.71198H767.116V41.9038H801.532V7.71198Z" fill="white"/>
<path d="M911.472 85.5933H877.056V119.785H911.472V85.5933Z" fill="white"/>
<path d="M856.024 85.5933H821.608V119.785H856.024V85.5933Z" fill="white"/>
<path d="M800.576 85.5933H766.16V119.785H800.576V85.5933Z" fill="white"/>
<path d="M910.516 163.475H876.1V197.666H910.516V163.475Z" fill="white"/>
<path d="M855.068 163.475H820.652V197.666H855.068V163.475Z" fill="white"/>
<path d="M799.62 163.475H765.204V197.666H799.62V163.475Z" fill="white"/>
<path d="M909.56 241.356H875.144V275.548H909.56V241.356Z" fill="white"/>
<path d="M854.112 241.356H819.696V275.548H854.112V241.356Z" fill="white"/>
<path d="M798.664 241.356H764.248V275.548H798.664V241.356Z" fill="white"/>
<path d="M908.606 319.234H874.183V332.677H908.606V319.234Z" fill="white"/>
<path d="M853.154 319.234H818.743V332.677H853.154V319.234Z" fill="white"/>
<path d="M797.703 319.234H763.291V332.677H797.703V319.234Z" fill="white"/>
<path d="M542 176.705V306.915C541.999 312.749 543.991 318.412 547.652 322.974C551.312 327.537 556.423 330.73 562.149 332.03C563.531 332.343 564.938 332.541 566.354 332.62C566.869 332.666 567.406 332.677 567.931 332.677H667.691C688.636 271.74 727.143 10.2188 569.429 32.9271L542 176.705Z" fill="#E4E4E4"/>
<path d="M622.761 241.356H588.345V275.548H622.761V241.356Z" fill="white"/>
<path d="M567.314 241.356H542V275.543H567.314V241.356Z" fill="white"/>
<path d="M621.806 319.234H587.394V332.677H621.806V319.234Z" fill="white"/>
<path d="M545.154 319.234C546.919 322.436 549.346 325.232 552.275 327.437C555.203 329.642 558.568 331.207 562.149 332.03C563.531 332.343 564.938 332.541 566.354 332.621V319.234H545.154Z" fill="white"/>
<path d="M1334 213.231V306.915C1334 311.219 1332.91 315.454 1330.83 319.234L1329.05 317.747L1325.61 314.885L1306.57 299.069L1311.3 318.439L1305.74 318.734L1305.3 318.757L1295.2 319.302L1286.37 319.779H1286.33L1273.73 320.46L1261.42 321.119L1257.31 321.334L1231.18 322.742L1220.03 323.344L1214.98 323.617L1201.62 324.332L1183.7 325.297L1180.38 325.479L1127.78 328.306L1094.33 330.111L1089.14 330.384L1088.75 330.406L1086.64 330.52H1086.63L1082.05 330.77L1075.46 331.122L1064.8 331.689L1060.09 331.939L1046.51 332.677L1033.43 333.381L1021.06 332.677L981.189 330.406L955.337 328.93L954.491 328.885L908.606 326.274L874.183 324.309L853.154 323.117L818.743 321.153L802.88 320.256L797.703 319.961L784.971 319.234L726.96 315.93L722.64 315.68L722.4 315.669L701.383 314.477L688.263 313.727L715.829 288.283L716.206 287.931L726.96 278.007C734.697 264.212 742.126 250.28 764.251 243.581L766.663 241.356L799.886 210.688L805.554 210.609L954.491 208.656L976.983 208.36L1023.06 207.759L1039.76 207.543L1052.09 208.258L1158.93 214.48L1165.89 214.889L1201.41 216.956L1234.27 218.863L1249.9 219.771L1253.71 219.998L1253.97 220.01L1255.89 220.123L1261.03 219.669L1267.35 219.113L1269.69 218.909L1270.77 218.806L1293.27 216.831L1295.15 216.66L1300.54 216.183L1331.71 258.875L1334 213.231Z" fill="#3F3D56"/>
<path d="M1213.37 314.496C1197.53 291.725 1185.99 233.908 1190.51 210.037C1190.31 209.258 1199.76 222.353 1199.79 221.541C1199.94 217.532 1202.81 214.424 1206.21 214.601L1248.91 216.824C1249.96 216.915 1250.98 217.279 1251.85 217.881C1252.72 218.483 1253.42 219.301 1253.87 220.254L1286.15 281.672C1286.66 282.653 1286.96 283.727 1287.05 284.829C1287.36 288.825 1284.87 292.366 1281.49 292.738L1224.24 299.019C1224.05 299.04 1223.86 299.05 1223.67 299.05C1220.95 299.043 1214.15 317.568 1213.37 314.496Z" fill="white"/>
<path d="M1031.62 314.284L1032.04 316.543L1033.66 325.24C1033.99 327.009 1034.5 328.74 1035.18 330.406C1035.38 330.929 1035.61 331.44 1035.85 331.939C1035.98 332.189 1036.1 332.427 1036.23 332.677H1153.45L1172.91 330.44L1173.15 330.406C1177.16 329.859 1180.89 328.043 1183.78 325.229C1186.18 322.856 1188.08 320.035 1189.38 316.93C1190.68 313.824 1191.35 310.494 1191.35 307.13C1191.37 306.191 1191.35 305.251 1191.27 304.315C1191.16 302.987 1190.95 301.67 1190.64 300.375C1192.83 275.68 1187.06 251.605 1173.79 228.117C1172.7 223.096 1170.03 218.548 1166.18 215.128C1163.01 212.341 1158.98 210.715 1154.75 210.518L1060.13 206.657C1056.53 206.542 1052.97 207.503 1049.92 209.416C1044.13 212.982 1039.92 219.703 1039.09 227.787C1031.12 253.199 1028.47 279.958 1031.28 306.426C1031.02 309.048 1031.13 311.693 1031.62 314.284Z" fill="white"/>
<path d="M996.975 325.861L753.851 318.832C750.795 318.743 705.591 336.465 703.397 333.709C698.591 327.673 698.474 317.736 703.135 311.513L809.343 206.872C810.316 205.456 811.611 204.287 813.122 203.459C814.634 202.631 816.32 202.167 818.044 202.104H1013.75C1014.67 202.105 1015.59 202.241 1016.48 202.508C1023 204.462 1027.07 212.893 1025.56 221.338L1009.06 313.706C1007.77 320.811 1002.88 325.841 997.243 325.865C997.154 325.865 997.064 325.864 996.975 325.861Z" fill="white"/>
<path d="M1251.14 224.061L1044.51 209.904L799.886 210.691C829.977 179.078 962.237 140.535 1103.89 187.095C1245.6 191.814 1255.89 220.129 1255.89 220.129L1257.65 222.881L1251.14 224.061Z" fill="#6C63FF"/>
<path d="M1332.99 314C1332.47 315.819 1331.75 317.575 1330.83 319.234C1329.44 321.769 1327.63 324.053 1325.47 325.99C1325.31 326.137 1325.15 326.274 1324.99 326.398C1323.04 328.099 1320.83 329.489 1318.45 330.52C1317.39 330.985 1316.3 331.376 1315.19 331.689C1314.46 331.894 1313.7 332.075 1312.95 332.212C1311.93 332.413 1310.89 332.546 1309.85 332.609C1309.27 332.655 1308.67 332.677 1308.07 332.677H1046.51L1033.43 333.381L1021.06 332.677H567.931C567.406 332.677 566.869 332.666 566.354 332.62C564.938 332.541 563.531 332.343 562.149 332.03L566.354 331.417L573.326 330.406L587.394 328.363L621.806 323.367L635.189 321.425L667.691 316.713L673.12 315.93L688.263 313.727L701.623 313.988L722.069 314.397H722.32L726.96 314.488L758.034 315.101L769.451 315.328L853.2 316.974L860.857 317.122L872.274 317.349L908.629 318.076L954.491 318.973L957.554 319.029L1006.66 320.006L1007.3 320.017L1032.35 318.257L1056.87 316.543L1075.44 315.249L1081.43 314.828L1081.66 314.817L1082.98 314.726L1083.85 314.658L1091.14 314.147L1118.42 312.24L1130.57 311.388L1135.81 311.025L1141.28 310.639L1191.35 307.13L1205.29 306.154H1205.3L1212.93 305.62L1226.9 304.644H1226.91L1241.28 303.633H1241.29L1246.87 303.247L1249.01 303.1L1265.28 301.964L1275.12 301.272L1292.01 300.091L1297.23 299.727L1304.25 299.228L1306.17 299.092L1306.57 299.069C1306.57 299.069 1312.45 299.194 1320.1 303.418C1322.53 304.76 1324.82 306.326 1326.95 308.096C1328.42 309.313 1329.83 310.614 1331.15 311.99C1331.77 312.626 1332.38 313.296 1332.99 314Z" fill="#6C63FF"/>
<path d="M1073.9 332.677H1091.62L1090 331.178L1089.17 330.406L1089.14 330.384L1085.41 326.943L1082.43 324.196L1080.02 326.591L1079.05 327.557L1076.18 330.406L1075.46 331.122L1073.9 332.677Z" fill="#CACACA"/>
<path d="M1171.01 332.677H1198.26L1202.46 330.406L1214.98 323.617L1217.93 322.016L1241.28 303.633H1241.29L1247.15 299.024L1250.19 296.628L1253.95 293.664L1272.53 279.051C1273.04 278.646 1273.52 278.198 1273.95 277.712C1274.97 276.574 1275.73 275.242 1276.21 273.8C1276.68 272.357 1276.86 270.833 1276.72 269.321C1276.71 269.191 1276.69 269.062 1276.66 268.935C1276.46 267.271 1275.88 265.674 1274.97 264.265C1274.06 262.855 1272.83 261.668 1271.39 260.794C1269.37 259.558 1266.99 258.994 1264.62 259.184C1262.25 259.373 1260 260.307 1258.19 261.85L1244.57 273.261L1239.13 277.814L1218.07 295.458L1205.3 306.154H1205.29L1202.86 308.198L1180.38 325.479L1173.95 330.406L1171.01 332.677Z" fill="#FFB6B6"/>
<path d="M1265.38 292.792C1266.1 292.891 1266.83 292.751 1267.46 292.396C1268.09 292.041 1268.59 291.49 1268.87 290.827C1269.24 290.015 1269.86 289.339 1270.63 288.891C1270.78 288.806 1270.94 288.731 1271.1 288.667C1272.08 288.301 1272.95 287.707 1273.65 286.934C1274.34 286.161 1274.84 285.232 1275.1 284.227C1275.9 280.907 1278.47 277.686 1281.05 275.202C1283.87 272.484 1286.89 269.876 1288.98 266.565C1291.99 261.789 1292.83 255.086 1287.02 251.101C1284.52 249.445 1281.53 248.694 1278.54 248.975C1272.28 249.481 1267.11 253.275 1262.19 256.952L1263.42 254.552C1258.12 258.661 1252.04 261.664 1245.54 263.381C1246.67 264.396 1245.69 266.427 1244.25 266.899C1242.81 267.371 1241.25 266.873 1239.77 266.56C1237.9 266.165 1235.58 266.199 1234.84 268.42C1234.68 268.957 1234.63 269.521 1234.7 270.076C1234.77 270.632 1234.95 271.168 1235.24 271.65C1240.46 280.875 1247.54 288.928 1256.04 295.304C1257.93 296.719 1260.12 298.111 1262.47 297.834C1264.82 297.557 1266.82 294.656 1265.38 292.792Z" fill="#6C63FF"/>
<path d="M1260.19 311.581L1261.42 321.119L1262.61 330.406L1262.73 331.394L1262.9 332.677H1308.07C1308.67 332.677 1309.27 332.655 1309.85 332.609C1310.89 332.546 1311.93 332.413 1312.95 332.212L1313.46 329.793L1313.76 328.351L1294.87 322.436L1286.37 319.779H1286.34L1274.06 315.919L1260.19 311.581Z" fill="#FFB6B6"/>
<path d="M1242.65 289.168C1243.58 291.2 1244.82 293.914 1246.22 296.991C1246.53 297.65 1246.83 298.331 1247.15 299.024C1247.75 300.341 1248.37 301.703 1249.01 303.1C1251.83 309.31 1254.9 316.055 1257.31 321.334C1259.31 325.751 1260.87 329.158 1261.43 330.406C1261.6 330.758 1261.68 330.94 1261.68 330.94L1262.73 331.394L1265.74 332.677H1308.07C1308.67 332.677 1309.27 332.655 1309.85 332.609C1310.89 332.546 1311.93 332.413 1312.95 332.212C1313.7 332.076 1314.46 331.894 1315.19 331.689C1316.3 331.376 1317.39 330.986 1318.45 330.52C1320.83 329.489 1323.04 328.099 1324.99 326.398C1325.09 325.615 1325.27 324.355 1325.46 322.822C1325.77 320.533 1325.93 318.227 1325.95 315.919C1325.95 314.068 1321.38 311.07 1320.1 303.418C1319.67 300.622 1319.67 297.778 1320.09 294.981C1322.46 277.746 1321.62 251.37 1304.9 246.215L1292.88 225.301H1269.94L1266.22 236.212V236.224L1264.08 242.48L1262.8 246.215L1262.53 246.579L1254.34 257.24C1254.34 257.24 1253.04 258.887 1251.26 261.487V261.498C1248.68 265.216 1246.45 269.152 1244.57 273.261C1243.35 275.923 1242.46 278.726 1241.94 281.606C1241.43 284.142 1241.68 286.77 1242.65 289.168Z" fill="#2F2E41"/>
<path d="M1290.99 204.223C1274.14 216.959 1255.37 227.096 1251.83 241.112C1251.83 241.112 1253.95 219.089 1244.07 223.264C1227.46 230.278 1233.08 192.133 1237.73 185.896C1245.5 175.5 1271.67 169.593 1271.67 169.593L1290.24 179.721L1290.99 204.223Z" fill="#2F2E41"/>
<path d="M1261.64 219.679C1277.72 219.679 1290.75 206.732 1290.75 190.762C1290.75 174.792 1277.72 161.846 1261.64 161.846C1245.57 161.846 1232.54 174.792 1232.54 190.762C1232.54 206.732 1245.57 219.679 1261.64 219.679Z" fill="#FFB6B6"/>
<path d="M1272.13 179.698L1273.25 184.585L1253.67 189.014C1253.65 188.025 1253.43 187.051 1253.01 186.152C1252.6 185.253 1252 184.449 1251.26 183.79C1251.68 185.707 1251.63 187.696 1251.12 189.59C1240.56 195.477 1241.17 197.562 1232.63 196.061C1232.06 196.19 1231.47 196.206 1230.89 196.108C1230.31 196.01 1229.76 195.8 1229.26 195.49C1228.76 195.179 1228.33 194.774 1227.99 194.298C1227.65 193.822 1227.41 193.285 1227.28 192.716C1223.85 177.732 1222.72 162.416 1237.73 158.697C1241.38 157.791 1245.17 157.617 1248.89 158.187C1252.6 158.756 1256.17 160.057 1259.37 162.013C1262.58 163.969 1265.35 166.541 1267.54 169.578C1269.73 172.615 1271.29 176.055 1272.13 179.698Z" fill="#2F2E41"/>
<path d="M1267.34 199.197C1266.38 195.023 1264.5 191.112 1261.84 187.747C1259.17 184.382 1255.79 181.646 1251.93 179.737C1248.07 177.828 1243.84 176.794 1239.53 176.708C1235.22 176.623 1230.95 177.488 1227.02 179.243C1228.38 175.25 1231.13 171.874 1234.78 169.725L1256.82 160.22C1267.69 157.761 1284.9 150.783 1292.75 157.465C1299.99 163.604 1296.47 175.621 1303.13 182.351C1310.43 189.726 1311.05 198.447 1308.98 203.463C1306.58 209.266 1301.79 217.183 1295.81 218.897C1295.5 216.855 1294.47 214.987 1292.91 213.621C1293.35 215.567 1293.38 217.579 1293.03 219.54L1256.82 248.226C1260.2 245.304 1263.08 237.776 1265.07 229.297C1266.24 224.278 1273.25 222.516 1267.57 213.998C1261.88 205.48 1268.11 202.565 1267.34 199.197Z" fill="#2F2E41"/>
<path d="M1296.33 167.202L1296.23 167.403C1296.11 167.673 1295.98 167.942 1295.88 168.222L1295.87 168.233C1295.32 168.435 1294.7 168.11 1294.09 167.594C1294.18 168.806 1294.25 169.98 1294.3 171.129L1275.03 163.637C1278.38 164.211 1278.88 152.364 1281.28 154.634C1281.42 154.757 1281.54 154.881 1281.66 155.004C1281.36 154.289 1281.16 153.54 1281.05 152.773C1280.95 151.81 1281.03 150.838 1281.28 149.903C1281.28 149.898 1281.29 149.893 1281.29 149.887C1281.29 149.881 1281.29 149.875 1281.29 149.869C1281.53 149.024 1281.9 148.222 1282.4 147.492C1283.11 146.432 1284.01 145.508 1285.05 144.768C1286.38 143.758 1287.93 143.073 1289.58 142.769C1291.23 142.465 1292.92 142.551 1294.53 143.019C1298.21 144.403 1301.25 147.079 1303.08 150.542C1304.75 153.207 1305.6 156.296 1305.53 159.432C1305.46 160.255 1305.28 161.066 1305 161.843C1304.65 162.934 1304.05 163.929 1303.25 164.752C1302.44 165.574 1301.46 166.202 1300.37 166.585C1300.1 166.675 1299.79 166.776 1299.45 166.899C1299.27 165.44 1299.26 163.966 1299.41 162.504C1298.16 163.91 1297.12 165.493 1296.33 167.202Z" fill="#2F2E41"/>
<path d="M1277.67 162.874C1277.69 163.499 1277.77 164.122 1277.89 164.735C1277.9 164.815 1277.92 164.893 1277.94 164.971C1278.73 168.457 1283.01 161.204 1286.31 163.636C1288.37 165.111 1290.66 166.247 1293.08 167C1293.19 166.72 1294.09 167.269 1294.21 167C1294.25 166.933 1294.18 165.946 1294.21 165.879C1292.15 165.09 1290.24 163.952 1288.57 162.515C1285.47 160.239 1285.91 162.37 1285.18 159.152C1284.35 155.441 1279.43 157.033 1281.96 155.273L1281.66 154.869C1279.87 156.101 1278.54 157.898 1277.91 159.97C1277.91 159.976 1277.91 159.983 1277.9 159.988C1277.9 159.994 1277.9 160 1277.89 160.004C1277.71 160.949 1277.63 161.912 1277.67 162.874Z" fill="#6C63FF"/>
<path d="M1272.83 332.677H1293.81L1294.05 330.406L1294.87 322.436L1295.2 319.302L1296.62 305.666L1297.23 299.727L1298.59 286.636L1299.05 282.231C1299.34 279.313 1298.47 276.399 1296.62 274.116C1294.77 271.833 1292.09 270.364 1289.15 270.025C1288.73 269.976 1288.3 269.95 1287.87 269.945H1287.84C1287.32 269.951 1286.8 269.985 1286.29 270.048C1283.64 270.424 1281.22 271.72 1279.45 273.704C1277.78 275.565 1276.79 277.934 1276.64 280.425L1276.63 280.596V280.607L1275.63 294.277L1275.12 301.272L1274.85 305.143L1274.06 315.918L1273.73 320.46L1273.01 330.406L1272.83 332.677Z" fill="#FFB6B6"/>
<path d="M1303.95 296.914C1304.53 296.471 1304.94 295.853 1305.12 295.156C1305.31 294.458 1305.26 293.72 1304.98 293.054C1304.65 292.225 1304.59 291.316 1304.81 290.452C1304.85 290.286 1304.91 290.123 1304.98 289.963C1305.39 289.013 1305.58 287.977 1305.5 286.942C1305.43 285.907 1305.11 284.904 1304.57 284.019C1302.73 281.132 1302.21 277.056 1302.22 273.485C1302.23 269.579 1302.45 265.614 1301.53 261.818C1300.18 256.342 1295.94 251.062 1289.02 252.413C1286.08 253.033 1283.45 254.64 1281.56 256.963C1277.56 261.769 1276.68 268.099 1275.9 274.163L1275.03 271.612C1274.29 278.25 1272.21 284.671 1268.91 290.491C1270.43 290.401 1271.21 292.511 1270.55 293.867C1269.88 295.223 1268.44 295.982 1267.17 296.82C1265.58 297.877 1263.99 299.547 1265.07 301.624C1265.35 302.113 1265.72 302.541 1266.17 302.881C1266.62 303.22 1267.13 303.464 1267.68 303.597C1277.97 306.324 1288.72 306.907 1299.25 305.309C1301.59 304.953 1304.12 304.365 1305.56 302.501C1307 300.636 1306.3 297.189 1303.95 296.914Z" fill="#6C63FF"/>
<path d="M1081.43 320.619C1081.43 323.817 1082.71 326.884 1084.98 329.145C1087.26 331.407 1090.35 332.677 1093.57 332.677H1118.43C1121.65 332.677 1124.74 331.407 1127.02 329.145C1129.29 326.884 1130.57 323.817 1130.57 320.619V311.426C1130.57 309.48 1130.1 307.563 1129.19 305.839C1128.28 304.115 1126.97 302.634 1125.36 301.524C1123.75 300.413 1121.9 299.706 1119.95 299.462C1118.01 299.219 1116.04 299.446 1114.2 300.125L1089.33 309.318C1087.01 310.175 1085.01 311.718 1083.6 313.738C1082.19 315.758 1081.43 318.159 1081.43 320.619Z" fill="#CACACA"/>
<path d="M567.931 330.406C567.406 330.406 566.88 330.384 566.354 330.35V331.417L573.326 330.406H567.931ZM667.691 330.406V332.677H726.96V330.406H667.691ZM981.189 330.406L1021.06 332.677H1046.51L1060.09 331.939L1064.8 331.689L1075.46 331.122L1082.05 330.77L1086.63 330.52H1086.64L1088.75 330.406H981.189ZM1308.07 330.406H1305.92L1306.05 332.677H1308.07C1308.67 332.677 1309.27 332.655 1309.85 332.609L1309.95 331.19L1310.02 330.316C1309.37 330.38 1308.72 330.411 1308.07 330.406ZM567.931 330.406C567.406 330.406 566.88 330.384 566.354 330.35V331.417L573.326 330.406H567.931ZM667.691 330.406V332.677H726.96V330.406H667.691ZM981.189 330.406L1021.06 332.677H1046.51L1060.09 331.939L1064.8 331.689L1075.46 331.122L1082.05 330.77L1086.63 330.52H1086.64L1088.75 330.406H981.189ZM567.931 330.406C567.406 330.406 566.88 330.384 566.354 330.35V331.417L573.326 330.406H567.931ZM587.394 330.406V332.677H797.703V330.406H587.394ZM981.189 330.406L1021.06 332.677H1046.51L1060.09 331.939L1064.8 331.689L1075.46 331.122L1082.05 330.77L1086.63 330.52H1086.64L1088.75 330.406H981.189ZM1308.07 330.406H1218.51C1218.39 331.156 1218.27 331.916 1218.17 332.677H1308.07C1308.67 332.677 1309.27 332.655 1309.85 332.609L1309.95 331.19L1310.02 330.316C1309.37 330.38 1308.72 330.411 1308.07 330.406ZM567.931 330.406C567.406 330.406 566.88 330.384 566.354 330.35V331.417L573.326 330.406H567.931ZM567.931 330.406C567.406 330.406 566.88 330.384 566.354 330.35V331.417L573.326 330.406H567.931ZM567.931 330.406C567.406 330.406 566.88 330.384 566.354 330.35V331.417L573.326 330.406H567.931ZM567.931 330.406C567.406 330.406 566.88 330.384 566.354 330.35V331.417L573.326 330.406H567.931ZM567.931 330.406C567.406 330.406 566.88 330.384 566.354 330.35V331.417L573.326 330.406H567.931ZM567.931 330.406C567.406 330.406 566.88 330.384 566.354 330.35V331.417L573.326 330.406H567.931ZM567.931 330.406C567.406 330.406 566.88 330.384 566.354 330.35V331.417L573.326 330.406H567.931ZM567.931 330.406C567.406 330.406 566.88 330.384 566.354 330.35C562.593 330.104 558.947 328.967 555.719 327.033C552.492 325.099 549.778 322.424 547.806 319.234H545.154C546.919 322.436 549.346 325.232 552.275 327.437C555.203 329.642 558.568 331.207 562.149 332.03L566.354 331.417L573.326 330.406H567.931ZM1308.07 0H567.931C561.057 0.00822705 554.466 2.72513 549.604 7.55478C544.743 12.3844 542.008 18.9324 542 25.7626V306.915C541.999 312.749 543.991 318.412 547.652 322.974C551.312 327.537 556.423 330.73 562.149 332.03C563.531 332.343 564.938 332.541 566.354 332.62C566.869 332.666 567.406 332.677 567.931 332.677H1308.07C1308.67 332.677 1309.27 332.655 1309.85 332.609C1310.89 332.546 1311.93 332.413 1312.95 332.212C1313.7 332.075 1314.46 331.894 1315.19 331.689C1316.3 331.376 1317.39 330.985 1318.45 330.52C1320.83 329.489 1323.04 328.099 1324.99 326.398C1325.15 326.273 1325.31 326.137 1325.47 325.99C1327.63 324.053 1329.44 321.769 1330.83 319.234C1332.91 315.454 1334 311.219 1334 306.915V25.7626C1333.99 18.9324 1331.26 12.3844 1326.4 7.55478C1321.53 2.72513 1314.94 0.00822705 1308.07 0ZM1331.71 306.915C1331.71 308.622 1331.53 310.324 1331.15 311.99C1330.72 313.994 1330.01 315.93 1329.05 317.747C1328.16 319.454 1327.06 321.045 1325.77 322.481V322.493L1325.76 322.504C1325.67 322.606 1325.57 322.72 1325.46 322.822C1322.64 325.884 1319.05 328.142 1315.05 329.362C1314.69 329.475 1314.32 329.578 1313.95 329.68C1313.79 329.725 1313.63 329.759 1313.46 329.793C1312.33 330.055 1311.18 330.23 1310.02 330.316C1309.37 330.38 1308.72 330.411 1308.07 330.406H567.931C567.406 330.406 566.88 330.384 566.354 330.35C560.371 329.949 554.764 327.307 550.668 322.956C546.571 318.606 544.29 312.872 544.286 306.915V179.033C544.286 178.249 544.286 177.477 544.297 176.705C544.893 130.225 563.902 85.8506 597.203 53.1991C630.505 20.5475 675.417 2.24957 722.206 2.27083H1308.07C1311.17 2.27022 1314.25 2.87742 1317.12 4.05778C1319.99 5.23813 1322.59 6.9685 1324.79 9.15004C1326.99 11.3316 1328.73 13.9215 1329.92 16.772C1331.1 19.6224 1331.71 22.6774 1331.71 25.7626L1331.71 306.915ZM567.931 330.406C567.406 330.406 566.88 330.384 566.354 330.35V331.417L573.326 330.406H567.931ZM567.931 330.406C567.406 330.406 566.88 330.384 566.354 330.35V331.417L573.326 330.406H567.931ZM567.931 330.406C567.406 330.406 566.88 330.384 566.354 330.35V331.417L573.326 330.406H567.931ZM567.931 330.406C567.406 330.406 566.88 330.384 566.354 330.35V331.417L573.326 330.406H567.931ZM567.931 330.406C567.406 330.406 566.88 330.384 566.354 330.35V331.417L573.326 330.406H567.931ZM567.931 330.406C567.406 330.406 566.88 330.384 566.354 330.35V331.417L573.326 330.406H567.931ZM567.931 330.406C567.406 330.406 566.88 330.384 566.354 330.35V331.417L573.326 330.406H567.931ZM567.931 330.406C567.406 330.406 566.88 330.384 566.354 330.35V331.417L573.326 330.406H567.931ZM981.189 330.406L1021.06 332.677H1046.51L1060.09 331.939L1064.8 331.689L1075.46 331.122L1082.05 330.77L1086.63 330.52H1086.64L1088.75 330.406H981.189ZM667.691 330.406V332.677H726.96V330.406H667.691ZM567.931 330.406C567.406 330.406 566.88 330.384 566.354 330.35V331.417L573.326 330.406H567.931ZM981.189 330.406L1021.06 332.677H1046.51L1060.09 331.939L1064.8 331.689L1075.46 331.122L1082.05 330.77L1086.63 330.52H1086.64L1088.75 330.406H981.189ZM667.691 330.406V332.677H726.96V330.406H667.691ZM567.931 330.406C567.406 330.406 566.88 330.384 566.354 330.35V331.417L573.326 330.406H567.931ZM1308.07 330.406H1305.92L1306.05 332.677H1308.07C1308.67 332.677 1309.27 332.655 1309.85 332.609L1309.95 331.19L1310.02 330.316C1309.37 330.38 1308.72 330.411 1308.07 330.406ZM981.189 330.406L1021.06 332.677H1046.51L1060.09 331.939L1064.8 331.689L1075.46 331.122L1082.05 330.77L1086.63 330.52H1086.64L1088.75 330.406H981.189ZM667.691 330.406V332.677H726.96V330.406H667.691Z" fill="#3F3D56"/>
</g>
<defs>
<clipPath id="clip0_456_9">
<rect width="792" height="334" fill="white" transform="translate(542)"/>
</clipPath>
</defs>
</svg>
