<svg width="30" height="30" viewBox="0 0 30 30" fill="none" xmlns="http://www.w3.org/2000/svg">
<path d="M19.492 13.584C19.8772 13.5824 20.2623 13.5808 20.659 13.5791C21.2609 13.5864 21.2609 13.5864 21.8749 13.5938C22.2761 13.5889 22.6773 13.5841 23.0907 13.5791C23.4758 13.5807 23.8609 13.5823 24.2577 13.584C24.7858 13.5861 24.7858 13.5861 25.3246 13.5883C26.2499 13.75 26.2499 13.75 26.989 14.2267C27.7009 15.3043 27.6793 16.2895 27.6659 17.5391C27.6671 17.784 27.6683 18.029 27.6695 18.2814C27.6703 18.7983 27.668 19.3153 27.6628 19.8322C27.6561 20.6225 27.6628 21.4119 27.6708 22.2021C27.6699 22.7051 27.6683 23.208 27.6659 23.7109C27.6684 23.9466 27.6709 24.1824 27.6735 24.4252C27.6549 25.4725 27.5716 26.1414 26.989 27.0233C26.0281 27.643 25.3976 27.6615 24.2577 27.666C23.8726 27.6676 23.4875 27.6692 23.0907 27.6709C22.6895 27.6661 22.2882 27.6612 21.8749 27.6562C21.273 27.6635 21.273 27.6635 20.659 27.6709C20.2739 27.6693 19.8888 27.6677 19.492 27.666C18.9639 27.6639 18.9639 27.6639 18.4251 27.6617C17.4999 27.5 17.4999 27.5 16.7607 27.0233C16.0489 25.9457 16.0704 24.9605 16.0838 23.7109C16.0826 23.466 16.0814 23.221 16.0802 22.9686C16.0794 22.4517 16.0817 21.9347 16.0869 21.4178C16.0936 20.6275 16.087 19.8381 16.079 19.0479C16.0798 18.5449 16.0814 18.042 16.0838 17.5391C16.0813 17.3034 16.0788 17.0676 16.0762 16.8248C16.0948 15.7775 16.1781 15.1086 16.7607 14.2267C17.7216 13.607 18.3521 13.5885 19.492 13.584Z" fill="white"/>
<path d="M5.74204 2.33398C6.12715 2.33237 6.51226 2.33076 6.90903 2.3291C7.51087 2.33635 7.51087 2.33635 8.12486 2.34375C8.52608 2.33892 8.9273 2.33408 9.34068 2.3291C9.72578 2.33071 10.1109 2.33232 10.5077 2.33398C11.0358 2.3361 11.0358 2.3361 11.5746 2.33826C12.4999 2.5 12.4999 2.5 13.239 2.97668C13.9509 4.05427 13.9293 5.03951 13.9159 6.28906C13.9171 6.53403 13.9183 6.77901 13.9195 7.0314C13.9203 7.54832 13.918 8.06526 13.9128 8.58215C13.9061 9.37246 13.9128 10.1619 13.9208 10.9521C13.9199 11.4551 13.9183 11.958 13.9159 12.4609C13.9184 12.6966 13.9209 12.9324 13.9235 13.1752C13.9049 14.2225 13.8216 14.8914 13.239 15.7733C12.2781 16.393 11.6476 16.4115 10.5077 16.416C10.1226 16.4176 9.73745 16.4192 9.34068 16.4209C8.93945 16.4161 8.53823 16.4112 8.12486 16.4062C7.52302 16.4135 7.52302 16.4135 6.90903 16.4209C6.52393 16.4193 6.13882 16.4177 5.74204 16.416C5.21393 16.4139 5.21393 16.4139 4.67515 16.4117C3.74986 16.25 3.74986 16.25 3.01072 15.7733C2.29885 14.6957 2.32043 13.7105 2.33384 12.4609C2.33264 12.216 2.33145 11.971 2.33022 11.7186C2.32937 11.2017 2.33166 10.6847 2.33689 10.1678C2.34358 9.37754 2.33695 8.58813 2.32896 7.79785C2.32978 7.29492 2.33138 6.79199 2.33384 6.28906C2.33131 6.05336 2.32878 5.81765 2.32617 5.5748C2.34483 4.52753 2.42809 3.85864 3.01072 2.97668C3.97158 2.35701 4.60207 2.33855 5.74204 2.33398Z" fill="white"/>
<path d="M5.74219 18.584C6.1273 18.5824 6.5124 18.5808 6.90918 18.5791C7.51101 18.5864 7.51101 18.5864 8.125 18.5938C8.52622 18.5889 8.92744 18.5841 9.34082 18.5791C9.72593 18.5807 10.111 18.5823 10.5078 18.584C11.0359 18.5861 11.0359 18.5861 11.5747 18.5883C12.7092 18.7866 13.079 19.0741 13.75 20C13.9117 20.6958 13.9117 20.6958 13.916 21.4453C13.9184 21.8538 13.9184 21.8538 13.9209 22.2705C13.9161 22.5525 13.9112 22.8345 13.9062 23.125C13.9111 23.407 13.9159 23.689 13.9209 23.9795C13.9193 24.2518 13.9177 24.5241 13.916 24.8047C13.9146 25.052 13.9132 25.2994 13.9117 25.5542C13.6824 26.5409 13.3109 26.902 12.5 27.5C11.5747 27.6617 11.5747 27.6617 10.5078 27.666C10.1227 27.6676 9.7376 27.6692 9.34082 27.6709C8.9396 27.6661 8.53838 27.6612 8.125 27.6562C7.52317 27.6635 7.52317 27.6635 6.90918 27.6709C6.52407 27.6693 6.13896 27.6677 5.74219 27.666C5.21407 27.6639 5.21407 27.6639 4.67529 27.6617C3.54081 27.4634 3.17098 27.1759 2.5 26.25C2.33826 25.5542 2.33826 25.5542 2.33398 24.8047C2.33237 24.5324 2.33076 24.2601 2.3291 23.9795C2.33394 23.6975 2.33877 23.4155 2.34375 23.125C2.33892 22.843 2.33408 22.561 2.3291 22.2705C2.33152 21.862 2.33152 21.862 2.33398 21.4453C2.33539 21.198 2.3368 20.9506 2.33826 20.6958C2.76753 18.8491 4.03292 18.5908 5.74219 18.584Z" fill="white"/>
<path d="M19.4922 2.33398C19.8773 2.33237 20.2624 2.33076 20.6592 2.3291C21.261 2.33635 21.261 2.33635 21.875 2.34375C22.2762 2.33892 22.6774 2.33408 23.0908 2.3291C23.4759 2.33071 23.861 2.33232 24.2578 2.33398C24.7859 2.3361 24.7859 2.3361 25.3247 2.33826C26.4592 2.53657 26.829 2.82409 27.5 3.75C27.6617 4.4458 27.6617 4.4458 27.666 5.19531C27.6684 5.60378 27.6684 5.60378 27.6709 6.02051C27.6661 6.30249 27.6612 6.58447 27.6562 6.875C27.6611 7.15698 27.6659 7.43896 27.6709 7.72949C27.6693 8.00181 27.6677 8.27412 27.666 8.55469C27.6646 8.80203 27.6632 9.04937 27.6617 9.3042C27.4324 10.2909 27.0609 10.652 26.25 11.25C25.3247 11.4117 25.3247 11.4117 24.2578 11.416C23.8727 11.4176 23.4876 11.4192 23.0908 11.4209C22.6896 11.4161 22.2884 11.4112 21.875 11.4062C21.2732 11.4135 21.2732 11.4135 20.6592 11.4209C20.2741 11.4193 19.889 11.4177 19.4922 11.416C18.9641 11.4139 18.9641 11.4139 18.4253 11.4117C17.2908 11.2134 16.921 10.9259 16.25 10C16.0883 9.3042 16.0883 9.3042 16.084 8.55469C16.0824 8.28237 16.0808 8.01006 16.0791 7.72949C16.0839 7.44751 16.0888 7.16553 16.0938 6.875C16.0889 6.59302 16.0841 6.31104 16.0791 6.02051C16.0815 5.61204 16.0815 5.61204 16.084 5.19531C16.0854 4.94797 16.0868 4.70063 16.0883 4.4458C16.5175 2.59912 17.7829 2.34083 19.4922 2.33398Z" fill="white"/>
</svg>
