<svg width="30" height="30" viewBox="0 0 30 30" fill="none" xmlns="http://www.w3.org/2000/svg">
<g clip-path="url(#clip0_299_7)">
<path d="M12.9883 6.875C14.8267 7.96313 16.3574 9.57903 17.1875 11.5625C17.1875 11.8719 17.1875 12.1813 17.1875 12.5C21.4156 12.5 25.6438 12.5 30 12.5C30 14.15 30 15.8 30 17.5C29.175 17.5 28.35 17.5 27.5 17.5C27.5 18.7375 27.5 19.975 27.5 21.25C25.85 21.25 24.2 21.25 22.5 21.25C22.5 20.0125 22.5 18.775 22.5 17.5C20.7469 17.5 18.9938 17.5 17.1875 17.5C17.0844 18.0156 16.9813 18.5313 16.875 19.0625C15.6692 21.2976 13.6534 22.9489 11.25 23.75C8.28136 23.9859 5.59982 24.0778 3.12502 22.1875C1.31423 20.5419 0.156737 18.7811 -0.14646 16.3025C-0.16994 13.3118 0.0622016 11.026 2.14602 8.73291C5.04816 6.01145 9.30352 5.20215 12.9883 6.875ZM5.62502 13.125C5.12056 14.1339 5.12637 15.1594 5.31252 16.25C5.85503 17.1953 6.51121 17.9431 7.50002 18.4375C9.10118 18.6273 9.10118 18.6273 10.5701 18.1104C11.7586 17.1319 12.1521 16.6043 12.3047 15.0781C12.2971 14.0311 12.1113 13.4847 11.4453 12.6758C10.3423 11.599 9.70991 11.4389 8.15798 11.4502C6.99504 11.6487 6.43655 12.2937 5.62502 13.125Z" fill="white"/>
</g>
<defs>
<clipPath id="clip0_299_7">
<rect width="30" height="30" fill="white"/>
</clipPath>
</defs>
</svg>
