<svg width="30" height="30" viewBox="0 0 30 30" fill="none" xmlns="http://www.w3.org/2000/svg">
<path d="M15.6271 1.13086C16.2001 1.2 16.2001 1.2 16.8001 1.8C16.8001 2.196 16.8001 2.592 16.8001 3C17.237 3.06652 17.6747 3.1281 18.1126 3.1875C18.3563 3.2223 18.5999 3.25711 18.8509 3.29297C19.0652 3.29529 19.2794 3.29761 19.5001 3.3C19.6981 3.102 19.8961 2.904 20.1001 2.7C21.1784 2.55936 21.7056 2.56692 22.6126 3.1875C23.2283 4.08734 23.1001 4.62967 23.1001 5.7C23.5501 6.45 23.5501 6.45 24.3001 6.9C24.5971 6.9 24.8941 6.9 25.2001 6.9C26.1001 6.9 26.1001 6.9 26.8126 7.3875C27.4363 8.29909 27.4386 8.81535 27.3001 9.9C27.0031 10.3455 27.0031 10.3455 26.7001 10.8C26.6919 11.4207 26.6919 11.4207 26.8126 12.0562C26.9054 12.6224 26.9054 12.6224 27.0001 13.2C27.2414 13.2433 27.4828 13.2866 27.7314 13.3312C28.5001 13.5 28.5001 13.5 28.8001 13.8C28.8821 15.5208 28.8821 15.5208 28.8001 16.2C28.5031 16.497 28.5031 16.497 28.2001 16.8C27.8041 16.8 27.4081 16.8 27.0001 16.8C26.9336 17.2369 26.872 17.6746 26.8126 18.1125C26.7604 18.4779 26.7604 18.4779 26.7072 18.8508C26.7048 19.065 26.7025 19.2793 26.7001 19.5C26.8981 19.698 27.0961 19.896 27.3001 20.1C27.4408 21.1782 27.4332 21.7055 26.8126 22.6125C25.9128 23.2282 25.3705 23.1 24.3001 23.1C23.5501 23.55 23.5501 23.55 23.1001 24.3C23.1001 24.597 23.1001 24.894 23.1001 25.2C23.1001 26.1 23.1001 26.1 22.6126 26.8125C21.6963 27.4394 21.1916 27.4364 20.1001 27.3C19.9083 27.1948 19.7165 27.0896 19.5189 26.9813C18.5764 26.5528 17.7911 26.8094 16.8001 27C16.7568 27.2413 16.7135 27.4826 16.6689 27.7313C16.5001 28.5 16.5001 28.5 16.2001 28.8C14.4793 28.8819 14.4793 28.8819 13.8001 28.8C13.5031 28.503 13.5031 28.503 13.2001 28.2C13.2001 27.804 13.2001 27.408 13.2001 27C12.7632 26.9335 12.3256 26.8719 11.8876 26.8125C11.5222 26.7603 11.5222 26.7603 11.1493 26.707C10.828 26.7036 10.828 26.7036 10.5001 26.7C10.2031 26.997 10.2031 26.997 9.90013 27.3C8.82189 27.4406 8.29464 27.4331 7.38763 26.8125C6.77195 25.9127 6.90013 25.3703 6.90013 24.3C6.45013 23.55 6.45013 23.55 5.70013 23.1C5.40313 23.1 5.10613 23.1 4.80013 23.1C3.90013 23.1 3.90013 23.1 3.20638 22.575C2.42622 21.5348 2.42622 21.5348 2.40013 20.7C2.54863 20.5329 2.69713 20.3659 2.85013 20.1938C3.55937 19.1003 3.21976 18.0384 3.00013 16.8C2.75882 16.7567 2.51751 16.7134 2.26888 16.6687C1.50013 16.5 1.50013 16.5 1.20013 16.2C1.11819 14.4792 1.11819 14.4792 1.20013 13.8C1.39813 13.602 1.59613 13.404 1.80013 13.2C2.19613 13.2 2.59213 13.2 3.00013 13.2C3.38424 11.3793 3.38424 11.3793 2.81263 9.69375C2.67651 9.46481 2.54038 9.23588 2.40013 9C2.70013 8.025 2.70013 8.025 3.30013 7.2C4.03138 6.95625 4.03138 6.95625 4.80013 6.9C5.50408 6.77577 5.93222 6.64608 6.52513 6.24375C6.98588 5.68913 6.98588 5.68912 6.88138 4.81875C6.90013 3.9 6.90013 3.9 7.38763 3.1875C8.30391 2.56057 8.80869 2.56357 9.90013 2.7C10.0919 2.80519 10.2838 2.91037 10.4814 3.01875C11.4239 3.44716 12.2091 3.19058 13.2001 3C13.2434 2.75869 13.2868 2.51737 13.3314 2.26875C13.6413 0.857097 14.2903 1.15755 15.6271 1.13086ZM10.5001 8.7C9.76226 9.47043 9.76226 9.47043 9.30013 10.2C9.76439 10.5191 10.2343 10.8301 10.7064 11.1375C11.0979 11.3985 11.0979 11.3985 11.4974 11.6648C12.414 12.1576 12.414 12.1576 13.8001 11.4C13.8001 10.113 13.8001 8.826 13.8001 7.5C12.5099 7.5 11.581 8.01931 10.5001 8.7ZM16.2001 7.5C16.2001 8.787 16.2001 10.074 16.2001 11.4C17.5863 12.1576 17.5863 12.1576 18.5029 11.6648C18.7639 11.4908 19.0249 11.3168 19.2939 11.1375C19.5588 10.965 19.8237 10.7925 20.0966 10.6148C20.2958 10.4779 20.4949 10.341 20.7001 10.2C19.7572 8.78558 18.6708 8.07733 17.1001 7.5C16.8031 7.5 16.5061 7.5 16.2001 7.5ZM7.80013 12.6C7.39053 12.9411 7.39053 12.9411 7.47083 13.848C7.47431 14.2344 7.47779 14.6207 7.48138 15.0187C7.48409 15.4059 7.48679 15.793 7.48958 16.1918C7.49306 16.4915 7.49654 16.7912 7.50013 17.1C8.74416 17.1 9.09375 16.9567 10.1251 16.35C10.3649 16.2108 10.6047 16.0716 10.8517 15.9281C11.0327 15.8198 11.2137 15.7116 11.4001 15.6C11.4001 15.204 11.4001 14.808 11.4001 14.4C10.7603 13.8564 10.7603 13.8564 9.93763 13.425C9.66615 13.2688 9.39468 13.1125 9.11497 12.9516C8.44316 12.5559 8.44316 12.5559 7.80013 12.6ZM20.856 12.9223C20.454 13.1618 20.454 13.1618 20.0439 13.4062C19.7736 13.5621 19.5032 13.7179 19.2247 13.8785C19.0186 14.0506 18.8125 14.2227 18.6001 14.4C18.6001 14.796 18.6001 15.192 18.6001 15.6C19.2282 16.1547 19.2282 16.1547 20.0439 16.5937C20.3119 16.7535 20.5799 16.9132 20.856 17.0777C21.617 17.5056 21.617 17.5056 22.5001 17.1C22.5001 15.714 22.5001 14.328 22.5001 12.9C21.617 12.4944 21.617 12.4944 20.856 12.9223ZM11.4974 18.3352C11.2364 18.5092 10.9753 18.6832 10.7064 18.8625C10.4415 19.035 10.1766 19.2075 9.90365 19.3852C9.70448 19.5221 9.50533 19.659 9.30013 19.8C10.2431 21.2144 11.3294 21.9227 12.9001 22.5C13.1971 22.5 13.4941 22.5 13.8001 22.5C13.8001 21.213 13.8001 19.926 13.8001 18.6C12.414 17.8424 12.414 17.8424 11.4974 18.3352ZM16.2001 18.6C16.0905 19.5377 16.0905 19.5377 16.1439 20.5875C16.152 20.9441 16.1601 21.3006 16.1685 21.668C16.1789 21.9425 16.1894 22.2171 16.2001 22.5C17.1582 22.337 17.9433 22.1401 18.7876 21.6562C18.9586 21.5615 19.1295 21.4668 19.3056 21.3691C19.9036 20.9227 20.2775 20.4109 20.7001 19.8C20.2136 19.4984 19.7259 19.1988 19.2376 18.9C18.9662 18.7329 18.6947 18.5659 18.415 18.3937C17.3409 17.8021 17.2499 17.9001 16.2001 18.6Z" fill="white"/>
</svg>
