<svg width="30" height="30" viewBox="0 0 30 30" fill="none" xmlns="http://www.w3.org/2000/svg">
<path d="M22.0057 4.22119C24.7566 6.20258 26.824 8.82322 27.5 12.1875C27.9182 16.0679 27.5861 19.4965 25.254 22.7344C23.1251 25.261 20.5298 27.2072 17.1654 27.5697C13.1306 27.8496 9.76553 27.3602 6.5833 24.679C3.92141 22.1378 2.49927 19.435 2.35295 15.739C2.3045 11.8283 3.18489 8.82098 5.93755 5.9375C10.2438 1.82658 16.9078 1.04225 22.0057 4.22119Z" fill="#FCA311"/>
<path d="M16.875 8.125C18.2927 9.29067 19.6186 10.522 20.918 11.8164C21.0732 11.9702 21.2284 12.124 21.3883 12.2825C22.5 13.3988 22.5 13.3988 22.5 13.75C17.55 13.75 12.6 13.75 7.5 13.75C7.5 12.925 7.5 12.1 7.5 11.25C10.5938 11.25 13.6875 11.25 16.875 11.25C16.875 10.2188 16.875 9.1875 16.875 8.125Z" fill="#14213D"/>
<path d="M7.8125 16.25C12.6594 16.25 17.5063 16.25 22.5 16.25C22.5 17.075 22.5 17.9 22.5 18.75C19.4062 18.75 16.3125 18.75 13.125 18.75C13.125 19.7812 13.125 20.8125 13.125 21.875C12.9079 21.6575 12.6907 21.4399 12.467 21.2158C11.8433 20.5919 11.2172 19.9706 10.5896 19.3506C10.2563 19.0202 9.92309 18.6898 9.58984 18.3594C9.41804 18.1902 9.24623 18.021 9.06921 17.8467C8.64439 17.4245 8.22765 16.9942 7.8125 16.5625C7.8125 16.4594 7.8125 16.3563 7.8125 16.25Z" fill="#14213D"/>
</svg>
