<svg width="103" height="103" viewBox="0 0 103 103" fill="none" xmlns="http://www.w3.org/2000/svg">
<g filter="url(#filter0_d_448_8)">
<circle cx="51.5" cy="47.5" r="47.5" fill="white"/>
</g>
<path d="M79.3713 54.5719C78.6213 53.2612 77.4062 52.3275 75.9531 51.9394C74.5 51.5513 72.985 51.7594 71.7738 52.4663L61.9019 57.5119C60.8669 56.2912 59.3444 55.5 57.625 55.5H42.625C39.9681 55.5 37.225 56.9456 35.3856 59.25H33.25C33.25 58.215 32.41 57.375 31.375 57.375H25.75C24.715 57.375 23.875 58.215 23.875 59.25V74.25C23.875 75.285 24.715 76.125 25.75 76.125H31.375C32.41 76.125 33.25 75.285 33.25 74.25H53.875C55.2644 74.25 57.1881 73.6725 58.2325 72.975L77.2938 62.2575L77.4813 62.1375C80.1156 60.2138 80.875 57.1725 79.3713 54.5719ZM29.5 72.375H27.625V61.125H29.5V72.375ZM75.3512 59.0494L56.2806 69.7762C55.7275 70.1419 54.5369 70.5 53.875 70.5H33.25V63H36.3438C36.9812 63 37.5756 62.6756 37.9206 62.1394C39.0325 60.4106 40.9225 59.25 42.625 59.25H57.625C58.66 59.25 59.5 60.0919 59.5 61.125C59.5 62.1581 58.66 63 57.625 63H46.375C45.34 63 44.5 63.84 44.5 64.875C44.5 65.91 45.34 66.75 46.375 66.75H57.625C60.7262 66.75 63.25 64.2262 63.25 61.125C63.25 61.095 63.2406 61.0669 63.2406 61.0387L73.57 55.7569C74.0031 55.5037 74.5094 55.4363 74.9837 55.5619C75.4656 55.6913 75.8687 56.0006 76.1219 56.445C76.7856 57.5906 76.09 58.4831 75.3512 59.0494ZM29.5 49.875H74.5C75.5369 49.875 76.375 49.035 76.375 48V21.75C76.375 20.715 75.5369 19.875 74.5 19.875H29.5C28.465 19.875 27.625 20.715 27.625 21.75V48C27.625 49.035 28.465 49.875 29.5 49.875ZM38.6856 23.625H65.3162C66.0625 27.2925 68.9575 30.1875 72.625 30.9356V38.8144C68.9575 39.5625 66.0625 42.4575 65.3162 46.125H38.6856C37.9375 42.4575 35.0425 39.5625 31.375 38.8144V30.9356C35.0425 30.1875 37.9375 27.2925 38.6856 23.625ZM31.375 42.72C32.9631 43.2862 34.2137 44.5369 34.78 46.125H31.375V42.72ZM69.2219 46.125C69.7881 44.5369 71.0369 43.2862 72.625 42.72V46.125H69.2219ZM72.625 27.0281C71.035 26.4637 69.7862 25.2131 69.2219 23.625H72.625V27.0281ZM34.78 23.625C34.2137 25.2131 32.9631 26.4637 31.375 27.03V23.625H34.78Z" fill="#FCA311"/>
<path d="M52 44.25C57.1694 44.25 61.375 40.0444 61.375 34.875C61.375 29.7056 57.1694 25.5 52 25.5C46.8306 25.5 42.625 29.7056 42.625 34.875C42.625 40.0444 46.8306 44.25 52 44.25ZM52 29.25C55.1012 29.25 57.625 31.7737 57.625 34.875C57.625 37.9762 55.1012 40.5 52 40.5C48.8987 40.5 46.375 37.9762 46.375 34.875C46.375 31.7737 48.8987 29.25 52 29.25Z" fill="#FCA311"/>
<defs>
<filter id="filter0_d_448_8" x="0" y="0" width="103" height="103" filterUnits="userSpaceOnUse" color-interpolation-filters="sRGB">
<feFlood flood-opacity="0" result="BackgroundImageFix"/>
<feColorMatrix in="SourceAlpha" type="matrix" values="0 0 0 0 0 0 0 0 0 0 0 0 0 0 0 0 0 0 127 0" result="hardAlpha"/>
<feOffset dy="4"/>
<feGaussianBlur stdDeviation="2"/>
<feComposite in2="hardAlpha" operator="out"/>
<feColorMatrix type="matrix" values="0 0 0 0 0 0 0 0 0 0 0 0 0 0 0 0 0 0 0.25 0"/>
<feBlend mode="normal" in2="BackgroundImageFix" result="effect1_dropShadow_448_8"/>
<feBlend mode="normal" in="SourceGraphic" in2="effect1_dropShadow_448_8" result="shape"/>
</filter>
</defs>
</svg>
