<svg width="103" height="103" viewBox="0 0 103 103" fill="none" xmlns="http://www.w3.org/2000/svg">
<g filter="url(#filter0_d_448_6)">
<circle cx="51.5" cy="47.5" r="47.5" fill="white"/>
</g>
<path d="M75.8344 69.0818C77.7134 66.6358 79.0029 63.8113 79.6077 60.8166C80.2124 57.822 80.117 54.7337 79.3285 51.7797C78.5399 48.8257 77.0784 46.0813 75.0518 43.7491C73.0251 41.4169 70.485 39.5564 67.619 38.3049C66.9947 34.817 65.56 31.5131 63.4238 28.6443C61.2876 25.7755 58.5062 23.4173 55.2908 21.7489C52.0755 20.0805 48.5109 19.1458 44.8678 19.0157C41.2247 18.8857 37.599 19.5637 34.2663 20.9984C30.9335 22.433 27.9813 24.5865 25.6339 27.2952C23.2866 30.004 21.606 33.1966 20.7197 36.6306C19.8334 40.0647 19.7648 43.6497 20.519 47.1133C21.2733 50.577 22.8306 53.8281 25.0727 56.6196L20.905 60.6378C20.4889 61.0473 20.2071 61.5672 20.0951 62.1321C19.983 62.6969 20.0457 63.2813 20.2753 63.8116C20.5003 64.3433 20.8823 64.7985 21.3731 65.1198C21.864 65.441 22.4419 65.614 23.0338 65.6169H40.0943C41.7933 69.0952 44.472 72.0351 47.8202 74.0964C51.1685 76.1576 55.0494 77.2557 59.0138 77.2637H77.0037C77.5957 77.2609 78.1735 77.0879 78.6644 76.7666C79.1553 76.4454 79.5373 75.9902 79.7622 75.4585C79.9918 74.9282 80.0545 74.3438 79.9425 73.779C79.8304 73.2141 79.5486 72.6942 79.1325 72.2847L75.8344 69.0818ZM38.0255 56.8817C38.0296 57.8568 38.1098 58.8301 38.2653 59.7934H30.2598L31.3092 58.8034C31.5902 58.5327 31.8133 58.2107 31.9655 57.8559C32.1177 57.5011 32.1961 57.1205 32.1961 56.7361C32.1961 56.3517 32.1177 55.9711 31.9655 55.6163C31.8133 55.2615 31.5902 54.9395 31.3092 54.6688C29.6288 53.0548 28.2966 51.1317 27.3905 49.012C26.4845 46.8922 26.0227 44.6182 26.0321 42.3231C26.0321 37.6897 27.9275 33.246 31.3013 29.9697C34.6751 26.6934 39.2509 24.8527 44.0221 24.8527C47.7451 24.831 51.3815 25.9428 54.4201 28.0319C57.4587 30.121 59.7468 33.0824 60.9627 36.4996C60.303 36.4996 59.6734 36.4996 59.0138 36.4996C53.4473 36.4996 48.1089 38.647 44.1728 42.4694C40.2367 46.2918 38.0255 51.476 38.0255 56.8817ZM69.6278 71.4403L69.7778 71.5859H59.0138C55.5457 71.5799 52.1871 70.4064 49.51 68.2653C46.833 66.1243 45.0031 63.1482 44.3321 59.8439C43.6612 56.5397 44.1906 53.1117 45.8303 50.144C47.47 47.1763 50.1185 44.8525 53.3246 43.5684C56.5307 42.2843 60.096 42.1194 63.4133 43.1018C66.7306 44.0841 69.5945 46.1529 71.5172 48.9558C73.44 51.7587 74.3025 55.1223 73.958 58.4735C73.6135 61.8247 72.0832 64.9563 69.6278 67.3348C69.0629 67.8724 68.7396 68.605 68.7283 69.373C68.73 69.7582 68.8103 70.1393 68.9648 70.4942C69.1192 70.849 69.3445 71.1706 69.6278 71.4403Z" fill="#FCA311"/>
<defs>
<filter id="filter0_d_448_6" x="0" y="0" width="103" height="103" filterUnits="userSpaceOnUse" color-interpolation-filters="sRGB">
<feFlood flood-opacity="0" result="BackgroundImageFix"/>
<feColorMatrix in="SourceAlpha" type="matrix" values="0 0 0 0 0 0 0 0 0 0 0 0 0 0 0 0 0 0 127 0" result="hardAlpha"/>
<feOffset dy="4"/>
<feGaussianBlur stdDeviation="2"/>
<feComposite in2="hardAlpha" operator="out"/>
<feColorMatrix type="matrix" values="0 0 0 0 0 0 0 0 0 0 0 0 0 0 0 0 0 0 0.25 0"/>
<feBlend mode="normal" in2="BackgroundImageFix" result="effect1_dropShadow_448_6"/>
<feBlend mode="normal" in="SourceGraphic" in2="effect1_dropShadow_448_6" result="shape"/>
</filter>
</defs>
</svg>
