<svg width="103" height="103" viewBox="0 0 103 103" fill="none" xmlns="http://www.w3.org/2000/svg">
<g filter="url(#filter0_d_448_7)">
<circle cx="51.5" cy="47.5" r="47.5" fill="white"/>
</g>
<path d="M34.3317 20.6652C34.5234 20.664 34.5234 20.664 34.7189 20.6629C34.8598 20.6633 35.0007 20.6636 35.1459 20.664C35.2952 20.6635 35.4445 20.6629 35.5983 20.6624C36.0134 20.6609 36.4286 20.661 36.8438 20.6613C37.2912 20.6613 37.7386 20.66 38.1861 20.6589C39.0629 20.6569 39.9398 20.6563 40.8167 20.6562C41.5292 20.6561 42.2417 20.6556 42.9543 20.6548C44.9731 20.6528 46.9919 20.6517 49.0107 20.6519C49.1196 20.6519 49.2285 20.6519 49.3407 20.6519C49.5042 20.6519 49.5042 20.6519 49.6711 20.6519C51.4387 20.652 53.2063 20.6498 54.9739 20.6465C56.7876 20.6431 58.6012 20.6415 60.4149 20.6417C61.4337 20.6418 62.4524 20.6411 63.4712 20.6386C64.3385 20.6365 65.2057 20.636 66.073 20.6376C66.5157 20.6383 66.9584 20.6383 67.4011 20.6363C67.8805 20.6341 68.3598 20.6356 68.8392 20.6374C69.0502 20.6356 69.0502 20.6356 69.2654 20.6337C69.3935 20.6348 69.5216 20.6359 69.6535 20.637C69.8196 20.6369 69.8196 20.6369 69.989 20.6368C70.3688 20.7129 70.5069 20.8695 70.75 21.1641C70.9163 21.4966 70.8816 21.7754 70.8813 22.1474C70.8814 22.2639 70.8814 22.2639 70.8816 22.3829C70.8818 22.6445 70.8811 22.9061 70.8805 23.1678C70.8805 23.3548 70.8805 23.5419 70.8805 23.729C70.8806 24.2379 70.8799 24.7468 70.8791 25.2557C70.8783 25.7872 70.8783 26.3186 70.8781 26.8501C70.8778 27.8569 70.8768 28.8638 70.8756 29.8706C70.8743 31.0167 70.8737 32.1628 70.8731 33.3088C70.8719 35.6668 70.8698 38.0248 70.8672 40.3828C70.941 40.4173 71.0148 40.4517 71.0909 40.4872C71.3856 40.6435 71.4879 40.7916 71.666 41.0718C71.7263 41.1665 71.7866 41.2612 71.8487 41.3588C72.1925 41.9242 72.5241 42.4961 72.852 43.0708C72.9683 43.2735 73.0846 43.4762 73.201 43.6789C73.3208 43.8878 73.4405 44.0968 73.5602 44.3058C73.9304 44.9522 74.3033 45.5971 74.6758 46.2422C74.8223 46.4961 74.9688 46.75 75.1152 47.0039C75.1877 47.1296 75.2603 47.2553 75.335 47.3848C75.5547 47.7656 75.7744 48.1465 75.9941 48.5274C76.1031 48.7162 76.1031 48.7162 76.2142 48.9088C76.3595 49.1607 76.5048 49.4126 76.65 49.6645C76.9928 50.2592 77.3361 50.8536 77.6812 51.4469C77.844 51.7269 78.0066 52.0072 78.1691 52.2874C78.2838 52.4849 78.399 52.6822 78.5141 52.8795C78.5836 52.9994 78.6531 53.1193 78.7247 53.2428C78.7859 53.348 78.8472 53.4532 78.9102 53.5615C79.3854 54.4456 79.4804 55.3898 79.2324 56.3725C78.7264 57.5143 77.5047 58.1024 76.4629 58.6641C76.2132 58.8007 75.9636 58.9374 75.714 59.0742C75.5914 59.1411 75.4688 59.2079 75.3425 59.2768C74.844 59.5537 74.354 59.8441 73.8648 60.1369C73.0897 60.5671 72.3115 60.6265 71.4531 60.4219C70.7352 60.137 70.2614 59.7554 69.8125 59.1328C69.1463 59.3257 68.5508 59.6356 67.9375 59.9531C67.9939 60.1027 67.9939 60.1027 68.0515 60.2553C68.3177 61.1421 68.3173 62.1059 67.9155 62.9487C67.6648 63.3832 67.3757 63.7196 67 64.0547C66.9227 64.1707 66.8453 64.2867 66.7656 64.4063C66.8392 64.6034 66.9181 64.7985 67 64.9922C67.1193 66.2022 66.9915 67.0675 66.2236 68.0098C65.6875 68.5772 65.1438 68.9329 64.355 69.0036C64.1037 69.0056 63.8524 68.9925 63.6016 68.9766C63.5919 69.1119 63.5822 69.2473 63.5723 69.3867C63.4506 70.3064 63.0447 70.9169 62.3299 71.4989C61.7316 71.91 61.1665 72.0781 60.4375 72.0235C60.4496 72.1346 60.4617 72.2458 60.4741 72.3604C60.4697 73.0878 60.1076 73.7236 59.6369 74.2605C58.8721 74.974 58.1553 75.2237 57.1196 75.2342C56.2621 75.1071 55.5244 74.667 54.7832 74.2427C54.5995 74.1387 54.4158 74.0348 54.2321 73.931C54.1521 73.8853 54.0722 73.8397 53.9898 73.7927C53.7592 73.6649 53.5257 73.5459 53.2891 73.4297C53.2465 73.4906 53.2039 73.5515 53.16 73.6142C52.5659 74.4383 51.9701 75.075 50.9453 75.3047C49.9388 75.4268 49.1465 75.2559 48.3402 74.6345C48.0374 74.3742 47.7465 74.1149 47.491 73.8074C47.4321 73.7601 47.3732 73.7128 47.3125 73.6641C47.0887 73.6949 47.0887 73.6949 46.8437 73.7813C45.6478 73.8701 44.8549 73.7586 43.936 72.9756C43.576 72.6506 43.3147 72.3399 43.0937 71.9063C43.0937 71.7902 43.0937 71.6742 43.0937 71.5547C43.0045 71.5601 42.9152 71.5656 42.8232 71.5712C41.6865 71.6109 40.8425 71.379 39.997 70.5966C39.4958 70.0159 39.1924 69.3822 39.1899 68.6104C39.202 68.4605 39.2141 68.3107 39.2266 68.1563C39.1154 68.1514 39.0042 68.1466 38.8896 68.1416C38.1542 68.0312 37.4924 67.6375 37.0114 67.0755C36.4181 66.2065 36.1711 65.4629 36.2969 64.4063C36.4025 64.115 36.5243 63.8534 36.6745 63.5827C36.794 63.2795 36.7776 63.1828 36.6484 62.8828C36.4666 62.6273 36.2822 62.3856 36.0845 62.1431C36.0281 62.0727 35.9717 62.0023 35.9136 61.9297C35.7929 61.7792 35.6719 61.6289 35.5506 61.4789C35.3532 61.2346 35.157 60.9893 34.9611 60.7437C34.6258 60.3234 34.2897 59.9037 33.9531 59.4844C33.8879 59.5409 33.8226 59.5974 33.7554 59.6556C32.9888 60.2901 32.4171 60.5741 31.4189 60.5464C30.5798 60.4301 29.8747 60.0119 29.1484 59.6016C28.9834 59.5085 28.9834 59.5085 28.815 59.4136C28.4418 59.2019 28.0698 58.9884 27.6982 58.7739C27.5784 58.7049 27.4586 58.6358 27.3352 58.5647C25.0657 57.236 25.0657 57.236 24.7168 56.1358C24.4644 54.9974 24.7308 54.1345 25.3105 53.1489C25.3617 53.0595 25.4128 52.97 25.4654 52.8779C25.6368 52.5791 25.8104 52.2817 25.9844 51.9844C26.1098 51.7688 26.2352 51.5532 26.3607 51.3376C26.5631 50.99 26.7658 50.6427 26.9691 50.2957C27.5067 49.3778 28.036 48.4555 28.5625 47.5313C29.2216 46.3746 29.8863 45.2215 30.5594 44.073C30.8804 43.5253 31.1993 42.9768 31.5128 42.4249C31.5713 42.3223 31.6298 42.2198 31.69 42.1141C31.7986 41.9235 31.9065 41.7325 32.0137 41.5412C32.2656 41.0998 32.4986 40.7089 32.8984 40.3828C32.9758 40.3828 33.0531 40.3828 33.1328 40.3828C33.1326 40.2854 33.1324 40.188 33.1322 40.0877C33.127 37.7189 33.1231 35.3501 33.1207 32.9813C33.1195 31.8358 33.1178 30.6903 33.1151 29.5448C33.1128 28.5465 33.1113 27.5483 33.1108 26.55C33.1105 26.0213 33.1097 25.4926 33.108 24.9638C33.1064 24.4664 33.1059 23.9689 33.1063 23.4714C33.1062 23.2887 33.1058 23.106 33.1049 22.9233C33.1037 22.674 33.104 22.4248 33.1046 22.1755C33.1044 22.036 33.1042 21.8964 33.104 21.7526C33.1323 21.4051 33.1717 21.2148 33.3672 20.9297C33.7571 20.6697 33.8775 20.6659 34.3317 20.6652ZM35.125 22.6875C35.125 28.3336 35.125 33.9797 35.125 39.7969C35.8211 40.0869 35.8211 40.0869 36.5312 40.3828C36.7676 40.5043 37.0016 40.6305 37.2303 40.766C37.3449 40.8333 37.4596 40.9007 37.5778 40.9701C37.6941 41.0398 37.8104 41.1094 37.9302 41.1812C38.0524 41.2538 38.1747 41.3264 38.3006 41.4012C38.5409 41.5441 38.781 41.6874 39.0208 41.8311C39.2936 41.9936 39.5678 42.1528 39.8436 42.31C40.7244 42.8228 41.2302 43.208 41.6069 44.1768C41.673 44.5249 41.6961 44.8055 41.6925 45.1555C41.6914 45.2966 41.6914 45.2966 41.6903 45.4405C41.6894 45.5117 41.6885 45.5829 41.6875 45.6563C42.3792 45.9105 43.0717 46.1628 43.7646 46.4137C44.0003 46.4993 44.2358 46.5854 44.4712 46.6719C44.8093 46.7961 45.1481 46.9187 45.4869 47.041C45.5922 47.0801 45.6974 47.1191 45.8058 47.1593C45.9044 47.1945 46.0029 47.2298 46.1043 47.266C46.1907 47.2975 46.2771 47.329 46.3661 47.3614C46.6494 47.4227 46.8076 47.3957 47.0781 47.2969C47.2591 47.1595 47.4344 47.0144 47.6055 46.8648C48.7654 45.9104 50.0428 45.3751 51.5459 45.3706C51.6506 45.3703 51.7554 45.3699 51.8633 45.3695C52.9609 45.388 54.0169 45.5902 55.0936 45.7893C57.457 46.2216 60.007 46.349 62.3125 45.5391C62.3052 45.4061 62.298 45.2732 62.2905 45.1362C62.2933 44.3464 62.5138 43.6387 63.0375 43.0357C63.5242 42.5962 64.1224 42.3032 64.6929 41.9868C64.8305 41.9093 64.968 41.8317 65.1054 41.754C65.3771 41.6006 65.6492 41.4481 65.9216 41.2961C66.2456 41.1147 66.5681 40.931 66.8897 40.7454C67.0534 40.6514 67.2171 40.5574 67.3809 40.4634C67.4525 40.4219 67.5242 40.3804 67.598 40.3376C68.0261 40.0951 68.3965 39.9564 68.875 39.7969C68.875 34.1508 68.875 28.5047 68.875 22.6875C57.7375 22.6875 46.6 22.6875 35.125 22.6875ZM33.9531 42.2578C33.7326 42.5687 33.7326 42.5687 33.5434 42.9225C33.4692 43.0545 33.3949 43.1866 33.3184 43.3226C33.2395 43.4657 33.1605 43.6088 33.0815 43.752C32.9983 43.9007 32.9149 44.0493 32.8314 44.1978C32.7036 44.425 32.576 44.6522 32.4487 44.8797C32.0605 45.5734 31.6606 46.2599 31.2578 46.9453C30.6651 47.9571 30.0805 48.9734 29.5 49.9922C28.8847 51.0717 28.2655 52.1488 27.6396 53.2222C27.5706 53.3407 27.5016 53.4592 27.4304 53.5813C27.1901 53.9927 26.9518 54.4004 26.6875 54.7969C26.6289 55.2021 26.6289 55.2021 26.6875 55.6172C27.0123 56.0079 27.3848 56.2415 27.8232 56.4915C28.0184 56.6035 28.0184 56.6035 28.2176 56.7177C28.3545 56.7952 28.4915 56.8727 28.6284 56.9502C28.7608 57.026 28.8932 57.1019 29.0296 57.18C29.4199 57.4029 29.8114 57.6235 30.2031 57.8438C30.3259 57.914 30.4488 57.9842 30.5753 58.0565C30.7468 58.1531 30.7468 58.1531 30.9218 58.2516C31.0227 58.3089 31.1237 58.3662 31.2277 58.4252C31.5025 58.5748 31.5025 58.5748 31.8804 58.5396C32.7241 57.9313 33.2055 56.7455 33.7114 55.8589C33.8277 55.6562 33.944 55.4535 34.0604 55.2508C34.1802 55.0419 34.2999 54.8329 34.4195 54.6239C34.7898 53.9775 35.1626 53.3326 35.5352 52.6875C35.9778 51.9206 36.4202 51.1535 36.8618 50.3859C36.9356 50.2576 37.0095 50.1293 37.0855 49.9971C37.2323 49.7421 37.379 49.4871 37.5256 49.232C37.8837 48.6103 38.2458 47.9916 38.6168 47.3775C38.7227 47.2015 38.7227 47.2015 38.8308 47.0219C38.9638 46.8015 39.0978 46.5816 39.2328 46.3625C39.6818 45.6495 39.6818 45.6495 39.8125 44.836C39.4845 44.3435 39.1297 44.0898 38.6173 43.8032C38.5476 43.7638 38.4779 43.7244 38.4062 43.6838C38.1846 43.5589 37.9622 43.4357 37.7397 43.3125C37.5927 43.2299 37.4456 43.1472 37.2987 43.0644C37.0156 42.9051 36.732 42.7469 36.4478 42.5897C36.2103 42.4574 35.9738 42.3232 35.739 42.186C35.6468 42.1323 35.5546 42.0787 35.4596 42.0235C35.3436 41.9546 35.3436 41.9546 35.2253 41.8843C34.6511 41.6329 34.361 41.8688 33.9531 42.2578ZM67.9009 42.353C67.7988 42.4115 67.6966 42.47 67.5914 42.5303C67.3803 42.6516 67.1696 42.7738 66.9594 42.8968C66.664 43.069 66.3667 43.2373 66.0684 43.4045C65.8906 43.5056 65.7128 43.6067 65.5352 43.708C65.4532 43.7539 65.3713 43.7998 65.2869 43.8471C64.8259 44.1153 64.4577 44.3602 64.1875 44.836C64.1858 45.4415 64.4772 45.8889 64.7881 46.3887C64.8955 46.5663 65.0028 46.7441 65.1099 46.922C65.1686 47.0191 65.2274 47.1161 65.2879 47.2162C65.639 47.8027 65.9782 48.3961 66.3188 48.9888C66.4707 49.2523 66.6225 49.5158 66.7743 49.7793C66.8505 49.9117 66.9267 50.044 67.0052 50.1803C67.4467 50.9467 67.8888 51.7128 68.3311 52.4788C68.7082 53.1323 69.0848 53.786 69.4605 54.4403C69.8269 55.0781 70.1946 55.7152 70.564 56.3513C70.679 56.5496 70.7938 56.748 70.9081 56.9467C71.0346 57.166 71.1629 57.3842 71.292 57.6021C71.3563 57.7119 71.4207 57.8217 71.487 57.9349C71.7274 58.2472 71.9059 58.4009 72.2734 58.5469C72.7694 58.4154 73.1949 58.2101 73.6408 57.9596C73.7649 57.89 73.889 57.8204 74.0168 57.7488C74.1449 57.6762 74.2729 57.6036 74.4048 57.5288C74.5305 57.4585 74.6563 57.3882 74.7859 57.3157C76.2226 56.6459 76.2226 56.6459 77.3125 55.6172C77.4391 54.7712 77.0365 54.232 76.602 53.5298C76.4503 53.2773 76.2986 53.0248 76.147 52.7722C76.0683 52.6422 75.9895 52.5121 75.9084 52.3781C75.5304 51.7489 75.1656 51.1122 74.8003 50.4756C74.6528 50.2195 74.5052 49.9635 74.3576 49.7075C74.2844 49.5803 74.2111 49.4532 74.1357 49.3222C73.9153 48.9397 73.6948 48.5572 73.4741 48.1749C73.4016 48.0492 73.3291 47.9234 73.2544 47.7939C73.1089 47.5419 72.9634 47.2899 72.8178 47.0379C72.4769 46.4479 72.1369 45.8574 71.7997 45.2653C71.6807 45.0565 71.5615 44.8478 71.4421 44.6391C71.2929 44.3779 71.144 44.1164 70.9958 43.8545C70.3724 42.6222 70.3724 42.6222 69.368 41.7538C68.7989 41.8072 68.3876 42.0657 67.9009 42.353ZM47.6499 49.4159C47.4387 49.6314 47.2202 49.8264 46.9902 50.0215C46.5542 50.3966 46.145 50.7949 45.7378 51.2007C45.6754 51.2626 45.6129 51.3245 45.5486 51.3883C44.9609 51.9782 44.9385 52.3663 44.9028 53.1782C44.8979 53.2858 44.8929 53.3934 44.8878 53.5042C44.8354 54.7552 44.8404 56.0061 44.8516 57.2578C45.2717 57.3979 45.4054 57.3456 45.8184 57.2066C45.9253 57.1729 46.0323 57.1392 46.1425 57.1045C47.0145 56.6102 47.4058 55.8277 47.7893 54.9336C48.2897 53.7759 48.7012 52.9248 49.907 52.444C50.063 52.3887 50.22 52.3363 50.378 52.2871C50.6201 52.2143 50.6201 52.2143 50.9462 52.0672C52.0317 51.6036 53.3417 51.4299 54.4609 51.8672C55.7788 52.4847 57.0227 53.2672 58.2764 54.0031C59.0289 54.4447 59.7841 54.8814 60.54 55.3169C60.665 55.389 60.7899 55.461 60.9187 55.5352C61.5138 55.8783 62.109 56.221 62.7045 56.5633C62.9131 56.6832 63.1216 56.8032 63.3302 56.9232C63.5914 57.0736 63.8528 57.2238 64.1142 57.3738C64.233 57.4422 64.3517 57.5106 64.4741 57.581C64.586 57.6451 64.698 57.7092 64.8134 57.7752C65.0995 57.9458 65.3703 58.1295 65.6441 58.3189C65.9678 58.5285 65.9678 58.5285 66.3459 58.5002C66.4457 58.4383 66.5456 58.3763 66.6484 58.3125C66.8208 58.2269 66.9937 58.1425 67.1671 58.0589C67.3581 57.963 67.549 57.8669 67.7397 57.7705C67.8377 57.7213 67.9357 57.672 68.0366 57.6213C68.2771 57.5003 68.5175 57.3792 68.7578 57.2578C68.6065 56.8606 68.4346 56.4936 68.225 56.1239C68.1655 56.0188 68.106 55.9136 68.0447 55.8053C67.9803 55.6924 67.9159 55.5796 67.8496 55.4634C67.782 55.3443 67.7143 55.2252 67.6447 55.1025C67.1035 54.1521 66.5534 53.2069 66.0002 52.2634C65.6132 51.6024 65.23 50.9394 64.8513 50.2737C64.8087 50.1989 64.7661 50.1241 64.7222 50.047C64.5139 49.6808 64.3059 49.3144 64.0985 48.9477C64.0235 48.8157 63.9485 48.6836 63.8712 48.5475C63.8049 48.4304 63.7386 48.3133 63.6704 48.1926C63.5054 47.9179 63.3307 47.6657 63.1328 47.4141C62.9872 47.4479 62.8416 47.4818 62.6915 47.5166C59.6362 48.1661 56.4499 48.0793 53.4062 47.4141C51.0191 46.9008 49.3104 47.6816 47.6499 49.4159ZM40.75 47.5313C40.706 47.6076 40.6619 47.684 40.6165 47.7626C38.5459 51.3518 38.5459 51.3518 38.3288 51.7279C38.1848 51.9776 38.0408 52.2273 37.8968 52.4771C37.5558 53.0685 37.2144 53.6598 36.8718 54.2503C36.7507 54.459 36.6297 54.6678 36.5088 54.8765C36.3572 55.1382 36.2054 55.3997 36.0533 55.6611C35.6827 56.3014 35.3297 56.9432 35.0078 57.6094C35.0944 57.7088 35.1809 57.8082 35.2701 57.9106C36.1832 58.9645 37.0985 60.0292 37.9004 61.1717C37.9513 61.2336 38.0022 61.2956 38.0547 61.3594C38.132 61.3594 38.2094 61.3594 38.2891 61.3594C38.5113 61.0558 38.7158 60.7457 38.9185 60.429C39.4346 59.6496 40.058 59.1127 40.9844 58.8985C41.9397 58.77 42.7876 58.9846 43.5758 59.5425C43.9077 59.8181 44.1416 60.0601 44.3828 60.4219C44.5423 60.3639 44.5423 60.3639 44.7051 60.3047C45.7855 60.0035 46.7986 60.136 47.7812 60.6563C48.4559 61.0611 48.8242 61.7398 49.0419 62.4827C49.0977 62.7318 49.1436 62.983 49.1875 63.2344C49.3398 63.2586 49.492 63.2827 49.6489 63.3076C50.427 63.4807 51.0234 63.8912 51.5752 64.4575C52.16 65.3797 52.2902 66.2983 52.0568 67.3822C52.0287 67.4753 52.0287 67.4753 52 67.5703C52.0653 67.5946 52.1305 67.619 52.1978 67.644C53.0123 67.9729 53.7312 68.3669 54.1547 69.1661C54.5019 70.0456 54.5388 70.7489 54.3437 71.6719C54.7738 71.9319 55.2066 72.1868 55.6401 72.4409C55.7618 72.5146 55.8835 72.5882 56.0089 72.6641C56.7146 73.1063 56.7146 73.1063 57.5151 73.2027C57.9709 73.0378 58.2342 72.8046 58.4453 72.375C58.5403 72.0066 58.5142 71.8318 58.4453 71.4375C57.7578 70.733 56.8284 70.3142 55.9761 69.8391C55.7704 69.7241 55.5652 69.6081 55.36 69.492C55.238 69.4239 55.1161 69.3559 54.9905 69.2857C54.6953 69.0938 54.6953 69.0938 54.4609 68.7422C54.4057 68.4234 54.4077 68.1238 54.4609 67.8047C54.7021 67.5079 54.8556 67.4637 55.2304 67.4101C55.8103 67.4721 56.2249 67.735 56.7241 68.0244C56.8265 68.082 56.9289 68.1396 57.0343 68.199C57.5424 68.4865 58.0451 68.7819 58.5442 69.0846C58.6327 69.138 58.7211 69.1913 58.8123 69.2463C58.9781 69.3469 59.1431 69.4489 59.3072 69.5524C59.7976 69.8517 60.1999 70.0163 60.7891 70.0313C61.1533 69.8593 61.4282 69.5733 61.6094 69.211C61.668 68.8156 61.668 68.8156 61.6094 68.3906C61.2251 67.9433 60.8097 67.6495 60.3029 67.3538C60.2355 67.3141 60.168 67.2745 60.0985 67.2336C59.8848 67.1082 59.6705 66.984 59.4561 66.8599C59.3132 66.7763 59.1704 66.6926 59.0276 66.6088C58.4754 66.2855 57.9231 65.9638 57.3609 65.6582C57.0391 65.461 57.0391 65.461 56.856 65.124C56.7955 64.6924 56.8563 64.4477 57.0391 64.0547C57.4369 63.8558 57.7842 63.8552 58.2109 63.9375C58.7609 64.1834 59.2705 64.4916 59.7856 64.8018C59.9323 64.8879 60.0792 64.9738 60.2261 65.0595C60.8622 65.4318 61.4933 65.8119 62.1212 66.198C62.211 66.2526 62.3008 66.3072 62.3933 66.3635C62.5535 66.4614 62.7126 66.5611 62.8705 66.6628C63.3652 66.967 63.727 67.0556 64.3047 66.9844C64.7593 66.6088 64.9853 66.3626 65.0518 65.7759C64.9955 65.2229 64.834 65.1181 64.4219 64.7578C64.1867 64.6046 63.9456 64.4601 63.7004 64.3234C63.5979 64.2656 63.5979 64.2656 63.4932 64.2065C63.2759 64.0842 63.0579 63.9632 62.8398 63.8423C61.986 63.3654 61.133 62.8873 60.2947 62.3834C60.1727 62.3105 60.0507 62.2376 59.925 62.1624C59.6268 61.9521 59.4457 61.7922 59.2656 61.4766C59.2733 61.0368 59.2872 60.7661 59.5806 60.4292C59.9339 60.2669 60.1671 60.2736 60.5547 60.3047C60.8937 60.4549 60.8937 60.4549 61.2445 60.6645C61.3739 60.7406 61.5033 60.8168 61.6366 60.8952C61.7716 60.9766 61.9066 61.0581 62.0415 61.1397C62.4353 61.3733 62.8293 61.6066 63.2236 61.8392C63.4705 61.9851 63.7166 62.1324 63.9616 62.2812C64.0732 62.3465 64.1847 62.4118 64.2996 62.4791C64.3971 62.5374 64.4945 62.5957 64.5948 62.6557C64.9775 62.7979 65.2043 62.759 65.5937 62.6485C65.9989 62.2874 66.2151 62.0229 66.2676 61.4766C66.2424 61.1924 66.212 61.0454 66.0244 60.8268C65.52 60.4106 65.0069 60.0818 64.4292 59.7774C64.2412 59.6756 64.0534 59.5735 63.8657 59.4711C63.766 59.4168 63.6663 59.3625 63.5636 59.3065C63.0044 58.9968 62.4537 58.6726 61.9023 58.3491C60.913 57.7697 59.9221 57.1931 58.9287 56.6206C58.7416 56.5128 58.7416 56.5128 58.5507 56.4028C58.1641 56.1799 57.7773 55.9572 57.3906 55.7344C56.8989 55.451 56.4072 55.1676 55.9155 54.8841C55.7182 54.7704 55.5209 54.6567 55.3236 54.5431C55.2038 54.474 55.0839 54.4048 54.9604 54.3336C54.8552 54.273 54.75 54.2124 54.6416 54.15C54.4384 54.0317 54.2372 53.91 54.0379 53.7853C53.4988 53.4767 53.0498 53.4562 52.4582 53.5893C52.0643 53.7061 51.6812 53.8313 51.2969 53.9766C51.1671 54.0173 51.1671 54.0173 51.0348 54.0588C50.4871 54.2552 50.1935 54.4382 49.9158 54.9585C49.8239 55.1596 49.735 55.3622 49.6489 55.5659C49.5509 55.778 49.452 55.9896 49.3523 56.2009C49.2809 56.3532 49.2809 56.3532 49.2081 56.5086C48.623 57.6995 47.81 58.5286 46.5581 58.9937C45.5903 59.2748 44.7183 59.3719 43.7969 58.8985C43.3615 58.5464 43.1492 58.2535 42.9766 57.7266C42.9481 57.3979 42.9481 57.3979 42.9496 57.0381C42.9498 56.8376 42.9498 56.8376 42.95 56.6331C42.9523 56.4203 42.9523 56.4203 42.9546 56.2031C42.9554 56.0573 42.9563 55.9115 42.9571 55.7613C42.9673 54.5862 42.9865 53.4076 43.077 52.2355C43.0973 51.9867 43.0973 51.9867 43.0887 51.7461C43.1036 51.0552 43.4474 50.7241 43.9294 50.2563C44.0234 50.1692 44.1175 50.082 44.2144 49.9922C44.3561 49.856 44.3561 49.856 44.5007 49.7171C44.7331 49.4943 44.9672 49.2737 45.2031 49.0547C44.8297 48.8058 44.4581 48.6639 44.039 48.5155C43.96 48.4872 43.881 48.4589 43.7996 48.4298C43.6327 48.3702 43.4657 48.3109 43.2987 48.2519C43.0435 48.1615 42.7888 48.0698 42.5341 47.978C42.3717 47.9203 42.2093 47.8626 42.0468 47.805C41.9709 47.7775 41.895 47.7501 41.8167 47.7218C41.4321 47.5871 41.1646 47.5313 40.75 47.5313ZM40.75 61.125C40.5217 61.3982 40.3288 61.6911 40.1348 61.9893C40.0222 62.1586 39.9096 62.3278 39.7969 62.4969C39.741 62.5815 39.6851 62.666 39.6274 62.7531C39.4719 62.9837 39.3114 63.2092 39.1469 63.4335C39.0985 63.5003 39.05 63.5671 39.0001 63.6359C38.8685 63.8165 38.7358 63.9963 38.6031 64.176C38.3741 64.5802 38.3048 64.8806 38.2891 65.3438C38.461 65.708 38.747 65.9829 39.1094 66.1641C39.5047 66.2228 39.5047 66.2228 39.9297 66.1641C40.4025 65.7527 40.7659 65.2703 41.1309 64.7652C41.186 64.6889 41.2411 64.6127 41.2978 64.5342C41.4679 64.2971 41.6365 64.0589 41.8047 63.8203C41.8588 63.7443 41.9128 63.6683 41.9686 63.59C42.1216 63.373 42.2712 63.1541 42.4199 62.9341C42.4662 62.8686 42.5124 62.8031 42.5601 62.7357C42.7816 62.3994 42.8605 62.208 42.8438 61.8016C42.7054 61.3591 42.5241 61.1705 42.1562 60.8906C41.5427 60.7153 41.2549 60.7456 40.75 61.125ZM44.6172 63.1172C44.5698 63.184 44.5224 63.2508 44.4736 63.3196C44.202 63.7045 43.9359 64.0929 43.6728 64.4836C43.3193 65.008 42.9544 65.5239 42.5884 66.0396C42.471 66.2063 42.3537 66.3731 42.2364 66.5399C42.0527 66.8008 41.8668 67.0588 41.677 67.3154C41.3896 67.7136 41.2303 67.9865 41.1235 68.4712C41.2412 68.9511 41.4136 69.141 41.8056 69.4307C42.21 69.6591 42.4075 69.6814 42.8594 69.5625C43.7288 68.8917 44.3157 67.7717 44.9225 66.8695C45.359 66.221 45.8097 65.5831 46.2627 64.9462C46.418 64.7276 46.5725 64.5085 46.7266 64.2891C46.7732 64.2232 46.8199 64.1572 46.8679 64.0893C47.0726 63.7933 47.194 63.593 47.2612 63.2344C47.1727 62.7622 46.9931 62.4599 46.6094 62.1797C45.6121 61.736 45.1676 62.3397 44.6172 63.1172ZM48.0156 65.8125C47.7486 66.1666 47.497 66.5305 47.2466 66.8965C47.102 67.1062 46.9574 67.3159 46.8126 67.5255C46.74 67.6307 46.6674 67.736 46.5927 67.8444C46.3851 68.1418 46.1734 68.4357 45.9593 68.7285C45.8948 68.8174 45.8302 68.9063 45.7637 68.998C45.642 69.1651 45.5195 69.3315 45.3958 69.4972C45.0744 69.9418 44.8662 70.2843 44.8516 70.8516C45.0412 71.2168 45.207 71.4716 45.54 71.7158C45.8826 71.8166 46.1363 71.8326 46.4922 71.7891C47.0231 71.4372 47.3282 71.0001 47.6714 70.478C47.7839 70.3106 47.8965 70.1432 48.0092 69.9759C48.0674 69.8891 48.1256 69.8024 48.1856 69.7131C48.5479 69.1789 48.9238 68.6543 49.2976 68.1283C49.4569 67.9037 49.6152 67.6785 49.7734 67.4531C49.8204 67.3875 49.8674 67.3218 49.9158 67.2542C50.242 66.7871 50.336 66.5032 50.2422 65.9297C49.8666 65.4751 49.6203 65.249 49.0337 65.1826C48.5055 65.2364 48.3386 65.424 48.0156 65.8125ZM50.0499 70.4227C49.9474 70.5628 49.8455 70.7033 49.7441 70.8443C49.6919 70.914 49.6396 70.9837 49.5858 71.0555C49.2742 71.4875 49.0897 71.8263 49.0703 72.375C49.2599 72.7402 49.4257 72.995 49.7588 73.2393C50.1063 73.3415 50.3499 73.3641 50.7109 73.3125C51.1807 72.8963 51.5477 72.4204 51.9121 71.9136C51.9644 71.8439 52.0166 71.7742 52.0705 71.7023C52.3821 71.2704 52.5665 70.9316 52.5859 70.3828C52.3963 70.0176 52.2305 69.7628 51.8975 69.5186C50.9542 69.2411 50.5971 69.7118 50.0499 70.4227Z" fill="#FCA311" stroke="#FCA311"/>
<path d="M49.6729 37.9054C49.8006 37.9047 49.9282 37.9041 50.0598 37.9034C50.2004 37.9033 50.3411 37.9031 50.4861 37.903C50.6338 37.9024 50.7815 37.9018 50.9336 37.9012C51.3394 37.8997 51.7452 37.8989 52.151 37.8984C52.4046 37.8981 52.6581 37.8976 52.9116 37.8971C53.7047 37.8955 54.4977 37.8943 55.2908 37.8939C56.2065 37.8934 57.1221 37.8913 58.0377 37.8879C58.7453 37.8854 59.4529 37.8842 60.1605 37.884C60.5832 37.8839 61.0059 37.8832 61.4286 37.8811C61.9002 37.8788 62.3718 37.8793 62.8434 37.8801C62.9834 37.879 63.1234 37.8779 63.2676 37.8768C63.4606 37.8778 63.4606 37.8778 63.6574 37.8788C63.7689 37.8786 63.8804 37.8785 63.9953 37.8783C64.3668 37.9306 64.5882 38.0549 64.8906 38.2734C65.074 38.6402 65.0895 39.0481 65.0078 39.4453C64.7653 39.7477 64.6247 39.8972 64.2393 39.973C64.1254 39.9732 64.0115 39.9734 63.8941 39.9736C63.6975 39.9756 63.6975 39.9756 63.4968 39.9776C63.2819 39.9762 63.2819 39.9762 63.0625 39.9747C62.8355 39.9759 62.8355 39.9759 62.604 39.9772C62.1892 39.9793 61.7745 39.9785 61.3597 39.977C60.9256 39.9758 60.4915 39.9769 60.0574 39.9777C59.3284 39.9785 58.5994 39.9774 57.8704 39.9752C57.0277 39.9726 56.185 39.9734 55.3422 39.976C54.6186 39.9782 53.8949 39.9785 53.1713 39.9772C52.7391 39.9765 52.307 39.9764 51.8748 39.978C51.3931 39.9796 50.9114 39.9773 50.4296 39.9747C50.2863 39.9757 50.143 39.9766 49.9953 39.9776C49.8642 39.9763 49.7331 39.9749 49.598 39.9736C49.4841 39.9734 49.3703 39.9732 49.2529 39.973C48.8639 39.8965 48.7269 39.7534 48.4844 39.4453C48.3672 39.0425 48.3672 39.0425 48.3672 38.625C48.7425 38.0296 48.9922 37.9075 49.6729 37.9054Z" fill="#FCA311" stroke="#FCA311"/>
<path d="M49.5787 27.9296C49.7085 27.9286 49.8383 27.9276 49.972 27.9266C50.1145 27.9267 50.2569 27.9268 50.4037 27.9269C50.5537 27.9261 50.7037 27.9253 50.8582 27.9245C51.2698 27.9224 51.6814 27.9219 52.0931 27.9217C52.4367 27.9215 52.7803 27.9207 53.124 27.9198C53.9348 27.9179 54.7456 27.9174 55.5564 27.9175C56.3927 27.9177 57.229 27.9152 58.0652 27.9115C58.7833 27.9084 59.5014 27.9072 60.2194 27.9073C60.6483 27.9074 61.0771 27.9067 61.5059 27.9042C61.9843 27.9015 62.4626 27.9026 62.941 27.904C63.0829 27.9027 63.2249 27.9014 63.3712 27.9C64.324 27.9072 64.324 27.9072 64.8028 28.17C65.048 28.4806 65.0778 28.7291 65.0856 29.1214C64.9619 29.5122 64.771 29.7498 64.4219 29.9531C63.934 30.0424 63.4502 30.0319 62.9554 30.0271C62.8066 30.0279 62.6577 30.0288 62.5043 30.0296C62.0968 30.0318 61.6893 30.0303 61.2818 30.028C60.855 30.0261 60.4281 30.0271 60.0013 30.0277C59.2845 30.0282 58.5677 30.0264 57.851 30.0231C57.0228 30.0193 56.1947 30.0193 55.3665 30.0214C54.5691 30.0232 53.7718 30.0224 52.9745 30.0204C52.6354 30.0196 52.2964 30.0197 51.9574 30.0206C51.4838 30.0217 51.0103 30.0189 50.5368 30.0157C50.3962 30.0164 50.2557 30.0172 50.1109 30.018C49.1661 30.0071 49.1661 30.0071 48.6926 29.7405C48.4035 29.3848 48.3753 29.1175 48.3672 28.6641C48.5692 28.0413 48.9668 27.9317 49.5787 27.9296Z" fill="#FCA311" stroke="#FCA311"/>
<path d="M44.7344 26.4375C45.0273 26.6133 45.0273 26.6133 45.2031 26.9063C45.2887 27.3728 45.3313 27.6572 45.0583 28.0545C44.994 28.1247 44.9297 28.1949 44.8635 28.2672C44.7892 28.3484 44.715 28.4296 44.6384 28.5132C44.1575 29.0175 43.6681 29.5127 43.1743 30.0044C43.0682 30.111 42.9621 30.2176 42.8527 30.3274C42.7008 30.4791 42.7008 30.4791 42.5458 30.6338C42.4541 30.7254 42.3623 30.8171 42.2678 30.9114C41.9739 31.1858 41.8403 31.2365 41.4385 31.3008C40.785 31.2165 40.4986 30.8779 40.0469 30.4219C39.9599 30.3378 39.8729 30.2536 39.7832 30.1669C39.0105 29.4122 39.0105 29.4122 38.9482 28.8618C38.9922 28.4297 38.9922 28.4297 39.2412 28.0855C39.5781 27.8438 39.5781 27.8438 39.9077 27.7559C40.4749 27.8893 40.8132 28.2605 41.2188 28.6641C41.584 28.5023 41.8276 28.3163 42.1054 28.0305C42.1816 27.953 42.2579 27.8755 42.3364 27.7957C42.4147 27.7149 42.493 27.6341 42.5737 27.5508C42.7299 27.3906 42.8863 27.2307 43.0429 27.0711C43.1118 27.0001 43.1806 26.9292 43.2515 26.8561C43.711 26.4193 44.1212 26.3413 44.7344 26.4375Z" fill="#FCA311" stroke="#FCA311"/>
<path d="M44.6172 36.5156C44.9541 36.6841 44.9541 36.6841 45.2031 36.9844C45.2953 37.4262 45.3026 37.8579 45.082 38.2595C44.9068 38.4746 44.7217 38.6668 44.5224 38.8598C44.4521 38.9312 44.3818 39.0025 44.3093 39.076C44.1606 39.2255 44.0105 39.3736 43.8592 39.5205C43.629 39.7451 43.4049 39.9747 43.181 40.2054C43.0352 40.3505 42.8891 40.4952 42.7426 40.6396C42.6432 40.7423 42.6432 40.7423 42.5416 40.8471C42.1657 41.2039 41.9013 41.3654 41.3753 41.3864C40.9293 41.3549 40.6778 41.2649 40.354 40.9431C40.2728 40.8627 40.1916 40.7824 40.108 40.6996C40.0274 40.6144 39.9468 40.5292 39.8638 40.4414C39.7791 40.3598 39.6944 40.2783 39.6072 40.1942C39.2175 39.796 38.9389 39.5073 38.9304 38.9322C39.0241 38.2888 39.0241 38.2888 39.3438 38.0391C39.9091 37.857 39.9091 37.857 40.2812 37.9219C40.5576 38.1117 40.7797 38.3176 41.0123 38.5586C41.2165 38.7811 41.2165 38.7811 41.5703 38.7422C41.8127 38.5467 41.8127 38.5467 42.0578 38.2849C42.1508 38.1902 42.2438 38.0956 42.3396 37.9981C42.4362 37.898 42.5328 37.7979 42.6323 37.6948C42.8239 37.4982 43.0157 37.3018 43.2077 37.1057C43.2926 37.0179 43.3775 36.9302 43.465 36.8397C43.8369 36.4812 44.1085 36.4658 44.6172 36.5156Z" fill="#FCA311" stroke="#FCA311"/>
<defs>
<filter id="filter0_d_448_7" x="0" y="0" width="103" height="103" filterUnits="userSpaceOnUse" color-interpolation-filters="sRGB">
<feFlood flood-opacity="0" result="BackgroundImageFix"/>
<feColorMatrix in="SourceAlpha" type="matrix" values="0 0 0 0 0 0 0 0 0 0 0 0 0 0 0 0 0 0 127 0" result="hardAlpha"/>
<feOffset dy="4"/>
<feGaussianBlur stdDeviation="2"/>
<feComposite in2="hardAlpha" operator="out"/>
<feColorMatrix type="matrix" values="0 0 0 0 0 0 0 0 0 0 0 0 0 0 0 0 0 0 0.25 0"/>
<feBlend mode="normal" in2="BackgroundImageFix" result="effect1_dropShadow_448_7"/>
<feBlend mode="normal" in="SourceGraphic" in2="effect1_dropShadow_448_7" result="shape"/>
</filter>
</defs>
</svg>
