<svg width="103" height="103" viewBox="0 0 103 103" fill="none" xmlns="http://www.w3.org/2000/svg">
<g filter="url(#filter0_d_448_5)">
<circle cx="51.5" cy="47.5" r="47.5" fill="white"/>
</g>
<path d="M38.75 28.2356C39.079 28.2374 39.4052 28.1762 39.7098 28.0553C40.0144 27.9345 40.2914 27.7565 40.525 27.5315L43.025 25.1037C43.4958 24.6465 43.7602 24.0265 43.7602 23.38C43.7602 22.7335 43.4958 22.1134 43.025 21.6563C42.5542 21.1991 41.9158 20.9423 41.25 20.9423C40.5842 20.9423 39.9458 21.1991 39.475 21.6563L36.975 24.084C36.7407 24.3097 36.5547 24.5782 36.4278 24.8741C36.3008 25.1699 36.2355 25.4873 36.2355 25.8078C36.2355 26.1283 36.3008 26.4456 36.4278 26.7414C36.5547 27.0373 36.7407 27.3058 36.975 27.5315C37.2086 27.7565 37.4856 27.9345 37.7902 28.0553C38.0948 28.1762 38.421 28.2374 38.75 28.2356ZM48.75 28.2356C49.079 28.2374 49.4052 28.1762 49.7098 28.0553C50.0144 27.9345 50.2914 27.7565 50.525 27.5315L53.025 25.1037C53.4958 24.6465 53.7602 24.0265 53.7602 23.38C53.7602 22.7335 53.4958 22.1134 53.025 21.6563C52.5542 21.1991 51.9158 20.9423 51.25 20.9423C50.5842 20.9423 49.9458 21.1991 49.475 21.6563L46.975 24.084C46.7407 24.3097 46.5547 24.5782 46.4278 24.8741C46.3008 25.1699 46.2355 25.4873 46.2355 25.8078C46.2355 26.1283 46.3008 26.4456 46.4278 26.7414C46.5547 27.0373 46.7407 27.3058 46.975 27.5315C47.2086 27.7565 47.4856 27.9345 47.7902 28.0553C48.0948 28.1762 48.421 28.2374 48.75 28.2356ZM58.75 28.2356C59.079 28.2374 59.4052 28.1762 59.7098 28.0553C60.0144 27.9345 60.2914 27.7565 60.525 27.5315L63.025 25.1037C63.2581 24.8773 63.443 24.6086 63.5691 24.3129C63.6953 24.0171 63.7602 23.7001 63.7602 23.38C63.7602 23.0599 63.6953 22.7429 63.5691 22.4471C63.443 22.1513 63.2581 21.8826 63.025 21.6563C62.7919 21.4299 62.5152 21.2503 62.2106 21.1278C61.9061 21.0053 61.5796 20.9423 61.25 20.9423C60.9204 20.9423 60.5939 21.0053 60.2894 21.1278C59.9848 21.2503 59.7081 21.4299 59.475 21.6563L56.975 24.084C56.7407 24.3097 56.5547 24.5782 56.4278 24.8741C56.3008 25.1699 56.2355 25.4873 56.2355 25.8078C56.2355 26.1283 56.3008 26.4456 56.4278 26.7414C56.5547 27.0373 56.7407 27.3058 56.975 27.5315C57.2086 27.7565 57.4856 27.9345 57.7902 28.0553C58.0948 28.1762 58.421 28.2374 58.75 28.2356ZM64.8 56.4464C64.7453 56.2917 64.6696 56.1448 64.575 56.0094L64.275 55.6453L63.9 55.3539C63.7606 55.2621 63.6093 55.1886 63.45 55.1354C63.3011 55.0615 63.1406 55.0123 62.975 54.9898C62.5734 54.9117 62.1581 54.9306 61.7658 55.0449C61.3734 55.1592 61.016 55.3654 60.725 55.6453C60.6175 55.7606 60.5173 55.8822 60.425 56.0094C60.3304 56.1448 60.2547 56.2917 60.2 56.4464C60.1279 56.5841 60.0774 56.7313 60.05 56.8834C60.0377 57.0451 60.0377 57.2074 60.05 57.369C60.0528 58.0059 60.3131 58.6162 60.775 59.0684C61.0062 59.3032 61.2879 59.4856 61.6 59.6026C61.885 59.7209 62.1902 59.7868 62.5 59.7968C63.163 59.7968 63.7989 59.541 64.2678 59.0857C64.7366 58.6304 65 58.0129 65 57.369C65.0123 57.2074 65.0123 57.0451 65 56.8834C64.957 56.7286 64.8895 56.5812 64.8 56.4464ZM69.4 45.4971L66 35.6403C65.4814 34.2158 64.5194 32.9831 63.2473 32.1131C61.9751 31.2431 60.4559 30.7789 58.9 30.7847H41.1C39.5441 30.7789 38.0249 31.2431 36.7527 32.1131C35.4806 32.9831 34.5186 34.2158 34 35.6403L30.6 45.4971C29.0008 45.9038 27.5848 46.8122 26.5721 48.081C25.5594 49.3499 25.0067 50.9081 25 52.5134V62.2246C25.0043 63.7272 25.4872 65.1918 26.3823 66.4175C27.2775 67.6432 28.5411 68.57 30 69.0709V71.9357C30 72.5796 30.2634 73.1971 30.7322 73.6524C31.2011 74.1077 31.837 74.3635 32.5 74.3635C33.163 74.3635 33.7989 74.1077 34.2678 73.6524C34.7366 73.1971 35 72.5796 35 71.9357V69.5079H65V71.9357C65 72.5796 65.2634 73.1971 65.7322 73.6524C66.2011 74.1077 66.837 74.3635 67.5 74.3635C68.163 74.3635 68.7989 74.1077 69.2678 73.6524C69.7366 73.1971 70 72.5796 70 71.9357V69.0709C71.4589 68.57 72.7225 67.6432 73.6177 66.4175C74.5128 65.1918 74.9957 63.7272 75 62.2246V52.5134C74.9933 50.9081 74.4406 49.3499 73.4279 48.081C72.4152 46.8122 70.9992 45.9038 69.4 45.4971ZM38.725 37.1698C38.8927 36.6876 39.2122 36.2688 39.6384 35.9725C40.0646 35.6763 40.5759 35.5176 41.1 35.5189H58.9C59.4452 35.4913 59.9847 35.6377 60.4361 35.9358C60.8875 36.2339 61.2261 36.6673 61.4 37.1698L64.025 45.2301H35.975L38.725 37.1698ZM70 62.2246C70 62.8685 69.7366 63.486 69.2678 63.9413C68.7989 64.3966 68.163 64.6524 67.5 64.6524H32.5C31.837 64.6524 31.2011 64.3966 30.7322 63.9413C30.2634 63.486 30 62.8685 30 62.2246V52.5134C30 51.8695 30.2634 51.252 30.7322 50.7967C31.2011 50.3414 31.837 50.0856 32.5 50.0856H67.5C68.163 50.0856 68.7989 50.3414 69.2678 50.7967C69.7366 51.252 70 51.8695 70 52.5134V62.2246ZM52.5 54.9412H47.5C46.837 54.9412 46.2011 55.197 45.7322 55.6523C45.2634 56.1076 45 56.7251 45 57.369C45 58.0129 45.2634 58.6304 45.7322 59.0857C46.2011 59.541 46.837 59.7968 47.5 59.7968H52.5C53.163 59.7968 53.7989 59.541 54.2678 59.0857C54.7366 58.6304 55 58.0129 55 57.369C55 56.7251 54.7366 56.1076 54.2678 55.6523C53.7989 55.197 53.163 54.9412 52.5 54.9412ZM39.8 56.4464C39.7453 56.2917 39.6696 56.1448 39.575 56.0094L39.275 55.6453C38.9234 55.3084 38.477 55.0802 37.992 54.9895C37.5071 54.8987 37.0053 54.9495 36.55 55.1354C36.2431 55.251 35.9628 55.4242 35.725 55.6453C35.6175 55.7606 35.5173 55.8822 35.425 56.0094C35.3304 56.1448 35.2547 56.2917 35.2 56.4464C35.1105 56.5812 35.043 56.7286 35 56.8834C34.9877 57.0451 34.9877 57.2074 35 57.369C35.0021 57.8491 35.1507 58.3179 35.4271 58.716C35.7035 59.1142 36.0953 59.4237 36.5529 59.6056C37.0105 59.7875 37.5133 59.8336 37.9978 59.738C38.4824 59.6424 38.9268 59.4094 39.275 59.0684C39.7369 58.6162 39.9972 58.0059 40 57.369C40.0123 57.2074 40.0123 57.0451 40 56.8834C39.957 56.7286 39.8895 56.5812 39.8 56.4464Z" fill="#FCA311"/>
<defs>
<filter id="filter0_d_448_5" x="0" y="0" width="103" height="103" filterUnits="userSpaceOnUse" color-interpolation-filters="sRGB">
<feFlood flood-opacity="0" result="BackgroundImageFix"/>
<feColorMatrix in="SourceAlpha" type="matrix" values="0 0 0 0 0 0 0 0 0 0 0 0 0 0 0 0 0 0 127 0" result="hardAlpha"/>
<feOffset dy="4"/>
<feGaussianBlur stdDeviation="2"/>
<feComposite in2="hardAlpha" operator="out"/>
<feColorMatrix type="matrix" values="0 0 0 0 0 0 0 0 0 0 0 0 0 0 0 0 0 0 0.25 0"/>
<feBlend mode="normal" in2="BackgroundImageFix" result="effect1_dropShadow_448_5"/>
<feBlend mode="normal" in="SourceGraphic" in2="effect1_dropShadow_448_5" result="shape"/>
</filter>
</defs>
</svg>
